<mxfile host="app.diagrams.net" modified="2021-12-15T23:00:06.549Z" agent="5.0 (X11)" etag="VNGOzguxG6mowXfEFsCv" version="15.9.6" type="github" pages="4">
  <diagram id="obIjXn6QXyscrrzhJ_gM" name="APP_Login">
    <mxGraphModel dx="1422" dy="749" grid="0" gridSize="10" guides="1" tooltips="1" connect="1" arrows="1" fold="1" page="1" pageScale="1" pageWidth="827" pageHeight="1169" math="0" shadow="0">
      <root>
        <mxCell id="0" />
        <mxCell id="1" parent="0" />
        <mxCell id="9e9hO8jKdyodvr-7tQJk-1" value="" style="shape=image;verticalLabelPosition=bottom;labelBackgroundColor=#ffffff;verticalAlign=top;aspect=fixed;imageAspect=0;image=https://imagensemoldes.com.br/wp-content/uploads/2020/03/Mockup-IPhone-PNG-Gr%C3%A1tis-677x1024.png;" vertex="1" parent="1">
          <mxGeometry x="192" y="120" width="456.47" height="690" as="geometry" />
        </mxCell>
        <mxCell id="9e9hO8jKdyodvr-7tQJk-2" value="" style="rounded=0;whiteSpace=wrap;html=1;" vertex="1" parent="1">
          <mxGeometry x="318" y="470" width="180" height="30" as="geometry" />
        </mxCell>
        <mxCell id="9e9hO8jKdyodvr-7tQJk-3" value="&lt;font style=&quot;font-size: 50px&quot;&gt;SLiPaD&lt;/font&gt;" style="text;html=1;align=center;verticalAlign=middle;resizable=0;points=[];autosize=1;strokeColor=none;fillColor=none;fontFamily=Helvetica;" vertex="1" parent="1">
          <mxGeometry x="330.24" y="260" width="180" height="30" as="geometry" />
        </mxCell>
        <mxCell id="9e9hO8jKdyodvr-7tQJk-4" value="&lt;font style=&quot;font-size: 16px&quot;&gt;ID Operador&lt;/font&gt;" style="text;html=1;align=center;verticalAlign=middle;resizable=0;points=[];autosize=1;strokeColor=none;fillColor=none;fontFamily=Helvetica;" vertex="1" parent="1">
          <mxGeometry x="317" y="450" width="100" height="20" as="geometry" />
        </mxCell>
        <mxCell id="9e9hO8jKdyodvr-7tQJk-5" value="" style="rounded=0;whiteSpace=wrap;html=1;" vertex="1" parent="1">
          <mxGeometry x="318" y="530" width="180" height="30" as="geometry" />
        </mxCell>
        <mxCell id="9e9hO8jKdyodvr-7tQJk-6" value="Password" style="text;html=1;align=center;verticalAlign=middle;resizable=0;points=[];autosize=1;strokeColor=none;fillColor=none;fontFamily=Helvetica;fontSize=16;" vertex="1" parent="1">
          <mxGeometry x="311" y="510" width="90" height="20" as="geometry" />
        </mxCell>
        <mxCell id="9e9hO8jKdyodvr-7tQJk-9" value="Smart Lighting with Parking Detection" style="text;html=1;align=center;verticalAlign=middle;resizable=0;points=[];autosize=1;strokeColor=none;fillColor=none;fontFamily=Helvetica;" vertex="1" parent="1">
          <mxGeometry x="318" y="295" width="220" height="20" as="geometry" />
        </mxCell>
      </root>
    </mxGraphModel>
  </diagram>
  <diagram name="APP_Menu" id="MWydmxPPmGfSazJ5Qj_Q">
    <mxGraphModel dx="1422" dy="793" grid="0" gridSize="10" guides="1" tooltips="1" connect="1" arrows="1" fold="1" page="1" pageScale="1" pageWidth="827" pageHeight="1169" math="0" shadow="0">
      <root>
        <mxCell id="cxD6NzrQungWxeZ0pKze-0" />
        <mxCell id="cxD6NzrQungWxeZ0pKze-1" parent="cxD6NzrQungWxeZ0pKze-0" />
        <mxCell id="cxD6NzrQungWxeZ0pKze-2" value="" style="shape=image;verticalLabelPosition=bottom;labelBackgroundColor=#ffffff;verticalAlign=top;aspect=fixed;imageAspect=0;image=https://imagensemoldes.com.br/wp-content/uploads/2020/03/Mockup-IPhone-PNG-Gr%C3%A1tis-677x1024.png;" vertex="1" parent="cxD6NzrQungWxeZ0pKze-1">
          <mxGeometry x="192" y="120" width="456.47" height="690" as="geometry" />
        </mxCell>
        <mxCell id="cxD6NzrQungWxeZ0pKze-4" value="&lt;font style=&quot;font-size: 50px&quot;&gt;SLiPaD&lt;/font&gt;" style="text;html=1;align=center;verticalAlign=middle;resizable=0;points=[];autosize=1;strokeColor=none;fillColor=none;fontFamily=Helvetica;" vertex="1" parent="cxD6NzrQungWxeZ0pKze-1">
          <mxGeometry x="328.24" y="250" width="180" height="30" as="geometry" />
        </mxCell>
        <mxCell id="cxD6NzrQungWxeZ0pKze-8" value="Smart Lighting with Parking Detection" style="text;html=1;align=center;verticalAlign=middle;resizable=0;points=[];autosize=1;strokeColor=none;fillColor=none;fontFamily=Helvetica;" vertex="1" parent="cxD6NzrQungWxeZ0pKze-1">
          <mxGeometry x="316" y="290" width="220" height="20" as="geometry" />
        </mxCell>
        <mxCell id="cxD6NzrQungWxeZ0pKze-9" value="" style="group" vertex="1" connectable="0" parent="cxD6NzrQungWxeZ0pKze-1">
          <mxGeometry x="326" y="450" width="200" height="30" as="geometry" />
        </mxCell>
        <mxCell id="cxD6NzrQungWxeZ0pKze-3" value="" style="rounded=0;whiteSpace=wrap;html=1;" vertex="1" parent="cxD6NzrQungWxeZ0pKze-9">
          <mxGeometry x="-6.666666666666666" width="199.99999999999997" height="30" as="geometry" />
        </mxCell>
        <mxCell id="cxD6NzrQungWxeZ0pKze-5" value="&lt;font style=&quot;font-size: 15px&quot;&gt;Add New Lamppost&lt;/font&gt;" style="text;html=1;align=center;verticalAlign=middle;resizable=0;points=[];autosize=1;strokeColor=none;fillColor=none;fontFamily=Helvetica;" vertex="1" parent="cxD6NzrQungWxeZ0pKze-9">
          <mxGeometry x="13.333333333333332" y="5" width="150" height="20" as="geometry" />
        </mxCell>
        <mxCell id="cxD6NzrQungWxeZ0pKze-10" value="" style="group" vertex="1" connectable="0" parent="cxD6NzrQungWxeZ0pKze-1">
          <mxGeometry x="320" y="510" width="200" height="30" as="geometry" />
        </mxCell>
        <mxCell id="cxD6NzrQungWxeZ0pKze-6" value="" style="rounded=0;whiteSpace=wrap;html=1;" vertex="1" parent="cxD6NzrQungWxeZ0pKze-10">
          <mxGeometry width="200.00000000000003" height="30" as="geometry" />
        </mxCell>
        <mxCell id="cxD6NzrQungWxeZ0pKze-7" value="Modify Lamppost" style="text;html=1;align=center;verticalAlign=middle;resizable=0;points=[];autosize=1;strokeColor=none;fillColor=none;fontFamily=Helvetica;fontSize=16;" vertex="1" parent="cxD6NzrQungWxeZ0pKze-10">
          <mxGeometry x="22.222222222222225" y="5" width="140" height="20" as="geometry" />
        </mxCell>
        <mxCell id="cxD6NzrQungWxeZ0pKze-14" value="" style="group" vertex="1" connectable="0" parent="cxD6NzrQungWxeZ0pKze-1">
          <mxGeometry x="313.77692307692314" y="570" width="210" height="30" as="geometry" />
        </mxCell>
        <mxCell id="cxD6NzrQungWxeZ0pKze-12" value="" style="rounded=0;whiteSpace=wrap;html=1;" vertex="1" parent="cxD6NzrQungWxeZ0pKze-14">
          <mxGeometry x="4.923076923076849" width="203.07692307692307" height="30" as="geometry" />
        </mxCell>
        <mxCell id="cxD6NzrQungWxeZ0pKze-13" value="Consult Lamppost Network" style="text;html=1;align=center;verticalAlign=middle;resizable=0;points=[];autosize=1;strokeColor=none;fillColor=none;fontFamily=Helvetica;fontSize=16;" vertex="1" parent="cxD6NzrQungWxeZ0pKze-14">
          <mxGeometry y="6" width="210" height="20" as="geometry" />
        </mxCell>
        <mxCell id="cxD6NzrQungWxeZ0pKze-15" value="&lt;font style=&quot;font-size: 25px&quot;&gt;Select Operation&lt;/font&gt;" style="text;html=1;align=center;verticalAlign=middle;resizable=0;points=[];autosize=1;strokeColor=none;fillColor=none;fontFamily=Helvetica;" vertex="1" parent="cxD6NzrQungWxeZ0pKze-1">
          <mxGeometry x="320.24" y="380" width="200" height="20" as="geometry" />
        </mxCell>
      </root>
    </mxGraphModel>
  </diagram>
  <diagram id="cDRqU1xPp-aqJntS8FUB" name="WebSite_Map">
    <mxGraphModel dx="1422" dy="749" grid="0" gridSize="10" guides="1" tooltips="1" connect="1" arrows="1" fold="1" page="1" pageScale="1" pageWidth="827" pageHeight="1169" math="0" shadow="0">
      <root>
        <mxCell id="pvXEMcbh3QGh9E6OVLg4-0" />
        <mxCell id="pvXEMcbh3QGh9E6OVLg4-1" parent="pvXEMcbh3QGh9E6OVLg4-0" />
        <mxCell id="8aR1oRSaA3z09EaaaNHm-2" value="" style="shape=image;verticalLabelPosition=bottom;labelBackgroundColor=#ffffff;verticalAlign=top;aspect=fixed;imageAspect=0;image=data:image/png,iVBORw0KGgoAAAANSUhEUgAAATYAAAKRCAYAAADeTYViAAAABHNCSVQICAgIfAhkiAAAABl0RVh0U29mdHdhcmUAZ25vbWUtc2NyZWVuc2hvdO8Dvz4AAAAmdEVYdENyZWF0aW9uIFRpbWUAcXVhIDE1IGRleiAyMDIxIDIyOjUxOjQxJucZFAAAIABJREFUeJzsnXecJGWd/98Vuro6TU9OmxOwJIFdclABwQAKKmLGdJ6e4cz3Q+9MGO/kzHfKmdETA4YzwuEpCggICkpYlmUDGyb1zHTu6u6qen5/9MzszO7kqZ7u6Xre+1rYra5++umenc8836ykMlmBRFJDcrkCqXyGnfYeClhz3t+ltHNMdD3RaGQZdre8ZLN5BrMjPC724OJ6vv762CpOaT1+Uc91HJeDh/rp6eogGg3P6zl9A0OUSmW6uzqOeqxUKpMYHgUE3V0dhMzggveUzeXp6x8iEgnT1to8cV1d8EoSiYdkszmGcyM8au+al6gBFClRKBWrvLPaEImEaDZi9ChHC4EX7M0cXPRzFUUBwBXzF1yrUMQ0zWkfM4wAXZ1taKrGwUMDFKyFf02jkTBdnW3kcnlGk6mJ61LYJDUjkRwlkR9hh7ObEuV5P68oStiOXcWd1Q5FUYhEQnSp7YSYXhCWyt7sgUU9T1UVFEXBceYvbJqm4TrOrI93drZhGAH6+ocolkoL3ldTLEp7WwuZTI5UKgOAvuBVJJ7hOC6u6+I4DkIIhACY/P/Dfy46pbE/KyhCIFAAAULgCBfGHhMIdFWrvIACyth9QlFQlIrXIahVjvyKolD5IVz5//hPZFVV0TQVVa38rgaJ0VFS5Qw7nT0Lfm6REqpo3J/JwaBBLBphTbZnUZ/PXOzNHGR9dPWinquqKs4sQnUkmq7iuLMLoaIotLe1MjiUoK8/wereTnR9YdLU0tyE67qMjKZQVVUKW7WoCNZh4XIcF8uunDRUoYALjuLiKi4lUcLFxXJLCAQuYuyXO+nP49ePuCamXlNRUVAq/1WUsT9Pusbs14KqgYqKjkYAHUUoKKpSEThVwdSNCdE7LH7amEDOjRCCxOgoSTvNLmff4j5bXBwqn6+mNabAhcMhIrkQzUqMpMh4unaylGZv9sCixE3T1AWf2IrFuU9hmqaOidswff0JVvV2LviHaltrM67rMppMSWFbDK7rTghXRbwcCuVS5fTkuCiiIkKu4lIUZfJugRJlypQpifLYn20EVY7bLGb5I34YKygYboAAOgElQKCoYxAgrJroik6AAKo7JqKqiqoCKoQC5iTx01BVFSEEI8lR+spDHBQDS3prjuLgOE7DChtAS1McJ+2StHd4vnaylF7U81RVxXHnf2ILGgaZTA7bdtB1bdZ7AwGd9vYWBgeH6RsYYlVP14L319HeiuO6UtiOxHUFrutMOm25WLaFcBkTLSaJVom8W6gIFvYU4aq6aC0TAkGREkVKU4XyiH/bOjqGMyZ+6BhWgIgaRhv7ZQgdRVE45A7QLxJL3lfaydLutACBJa9VrwSDBoZm0OG0MiRGPF17b+YgzUbTgk9tmrqwE1u8KcrwSJJsNkdzc9Oc9wcNg/b2VoaGKuLWM000dS66O9v9KWyu61Iu25TLNq7rUrTLOI4NQqmculSX0thJqyJaY6csYVOiXJUw/ErHHvuFmBTZPEL8VFTPPrsiJWx7/ieHlUo8GqU31cmQ7a2wweJObaqmUSrNP9CjqirxphjJVJpAQCcSmTtNJGQGaW9rITE8yqA6TGdH24L36QthK5fLE0JWKBURQmBRJOVmDguXqJiKDi5St6qDlz8QihQplovEaLxctskYRgBFVWlV4oyI1NxPWAB7MwcXnNMWNAJkMlmKxRLBoDGv53S0t+C4DsMjSYRgXjlw4XCI1knBgPa2lgXts+GEzXGcCRHLFXMojoqt2ow6afIUyIkCFo2ZA+UnLFHCXkB0biXTGo3jpB1GbG+FDeCBkUcWJG7hcAgtmSKVzizoJNXd2Y6iKIyMJhEIYvNIro5GI7iuYDSZRlVVWlvi8369FS1sQogxEStTKFo4toujOBRE5TSWE3nyFHDdxvB3SQ5TpOSbk3UwaKCj0aRESYusp2sv5tQWjURIpTO0tTajabMHBCbT1dGGoiiMjqYQQtAUi875nKamKK5wGR5JomkVs3Y+rChhs2170mmsgOoqlNUyI06KHAXyorCgRE/JykUgcBUxFhmd/zfXSiUejdGT6STteCtswIJTP6LRMKl0hlQ6u6BTFEBneyuqojCaTCOEmJdQNccrOWqDQyOoqjqv017dCttkB3+mmENxFFzFIelkJkzKPAXf/NSWHE1JFH0jbKGQSSQbIkKIHAVP115owq6maUQjYVKpzIKFDaC9rWXMLE2BgHh8bnFrbWnGdQX9AwlUVSUSDs16f90I27iDP1e0cGxnkoM/PXEas48Ms0l8TVYUsG0XY34+7BVPLBKhI91KTiy+3nM6FpOwG41GyObypFKZeQnTkbS1NqMoylhAQcwrFaS9rYVB16Wvf4jVvV2YsxTN10TYpjr48yiOIh38kgVTpLSg8p6VTihk0pJtps8ZqvgYPWShqR+GESASCTM0PErQNDCDC+/M0doSR1EUEsOjCCFomcfpr6O9lYFJCbyGMX0e47IJW6lUplQqkSnkEUJQwJIOfsmSKFLyRcrHOIqiEA2H6Mi2ckD0e7r2YhJ2W1vilMtlDh4apLenc1Fth1qam1AUGEqMIhC0tjTPer+iKHRMrk7o7UKfxhVRNWFzXUGpVKJYLGEVi9iKTcIZJS2yZMlX62UlPqLS5cNfTtZwOERnrpV+MeS5a2ahpzZFUejsaGMoMcLBQwP09nQSDi28I0lzvAlFURgcGkEIpvRVmw5N02hvHy+ar5ilyhHFyp4Km23bFItl0lYW1YacUmDYTZIWWRmtlHhOkRKKv3QNVVUJhUJ05FvpE0Oerr2Y1A9VVY8St7kc+9MRb4qhKAoDg8MIIeZMyA0E9ElF80P09nROeVxZagfdYrFEqVQiZ1m4uAw7o6TJep5vI5FMx1O04+hqa/dFZHQc27YZGhnhAedRz9debIddISCRGKFgWfR0dxCdR+nUdGSyOfoHEoRCJh3trXPeXyhYDCVGiEUjdHe1T1xf8InNdV0sq0S6kAZboazYDLkjpEWGgnT4S5aZoihj2/5I+RhH13UCgQAdbnWK4xcjbIoCHR2tJBIj9PUP0d3VPq98syOJRSMoikJf/xBDQ8O0t7ceZWZOJhQyaWtrYXh4dOz0WBHDeQmbEALLKpLKZ1BsGBapiVOZI1MwJDUkJ/K+ioyO0xSJ0mtXpzh+sb3aANrbW0kMj9I/kJh3dcGRRCNhens66esbZGhohPb2VlR1ZnGLhEOVPmyjKTRNpa21eXZhKxZLWFaRglUkr+QZdEdIinTDtOSRrHz8lvIxTjWL4xfbq22c9rYWhif5y+ZbBjWZSDhEb29XRdwSw3S0t87aeDIWjczeQbdUKo+JWYESNv3uEKMiLU9mkrrEoohVKrPwb52VT7WK4xdrjk5mPAF3cGgE4c4vAfdIwiGzIm79gwwOVcRtNpdDvCmGcAWJ4dGKsJXLNpZVJG8VKGMz6AwzKlIykimpe4qitKCOro1EMGigVas4fgnm6DiVBFwYWkAC7pGEzCC9PVPFbbZ5CM1jsw/0vqEhBC5DzgijIj3vEWgSST3gx5SPyTRXqTh+qeboOC3NcRQUEiNJXCHmzFGbDjNoVHxu/UMMDo3Q0d5KIDCzuLW2NqPusvfyoL2DQ2JQippkReIoji+66U5HKGQSUSrF8V6ylPmjR9Lc3ES8KcbIaIrEcHJRawSNiripqsLg0PCcXXxVWQUgWelYPg0gjBOLROhQ5s75WiiLnT86HfF4jOZ4E6PJFEOJ0UWtYQQC9PZ0ousaQ0PDs06/atwRPxLfkHP9mfIxTihk0qI2E8TbNidemaPjNDVFaWluIplKMzi0uDSVgK6zqqeTgBFgKDGMVZw+d1YKm2TFkyFHOu/fSpeJ4niPT21emqPjxGJRWlripNIZBgaHF7WGpmms6ukkGAwyNDSCZR0tblLYJCuelMjgCHdB05MajXA4RKfSio63FRhemqPjxKIRWlubSWey9A8sbhSjqqqs6ukkFAoyODRMoTA1PiCFTdIQ9DmDpHL+PbVNFMd7fGrz2hwdJxoJ09baQiabo69/ccX8iqKwqqeLSCTEUGKEfP5wZ2EpbJKGICFGccq2b6OjAOGwSZfaPveNC2Bv5mDVxC0SCdHe1kI2l+dQ3+Ci1+nt7iQaDZMYHiWXqwRDpbBJGgKBYMBNHGWS+Ald1wnoAdqUheeKzUY1zNFxwuEQHe2t5PIFDh4aQIjFlWv2dHUQi0UqU+dzeSlsksYhIUbJFwqL/uZoBGKRCL1al6drViOIMJlQyKSzo42CVeTgoQEcd3EZ192d7TQ1RRkZSUphkzQOJcoMu0lfn9oqM0h1wl4n7Fbx1AZgmkE6O9oolsocOjS46GHYXR1txOMxKWySxiIhRknncrXeRk2JhcOem6PV8rNNJhg06OhopWxXxK1s24tap7O9VQqbpLHIkadMedrcJr9gmiYdaguqh9/e1TZHxwkaBh0dbTiOw6FDg5TKi0vhkcImaTgOOv0kc9U/YdQrmqZiBs0VFUSYjBEI0NHRhisEhw4NUiwtfNSgFDZJwzEq0riuvxN2Q6EgPVqHp2suhzk6TiCg09nRBorCwUODM5ZOzYQUNklD0ucM+TqIYBiVXm1RFjdUZTqWyxwdR9c1Ojta0TSVg4cGKVjz/3pKYZM0JAlRmZjk5+L4pkiUNmX2MXYLZbnM0XE0TaOzo41AQOfgoUHy+fmJmxQ2SUPiIhgUR9cQ+gnTrPjZvKwfXU5zdJzx2aXBoMHBvgFyucLcz1mGfUkkNSEhRsnm/Zuwq6oKoZBJq4dBhOU2R8cZnzofMk0O9Q+Szc7eR1IKm6RhKVIi6aZ8fmoL0u1xEGG5zdHJdHS0Eg6Z9A0MkcnMnK8ohU3S0AyJUdI+7vphGAE0VJqUhc/3nIlamKOTaW9vJRIO0T+YIJ2e/msrhU3S0GTJ4SiOrxN2myIx2lj55uhk2tpaiETCDAwNk0pljnpcCpuk4Tlg+zthNxQK0qLGCRDwbM1amqPjtLU2E41GGEyMkExO/fpKYZM0PCMiheu4lMuLqz1c6SiKQsj0thKh1uboOK0tcWKxCEPDo4yMHh4cLYVN4gv63QSFwtxpAo1KKGTSpXnXhLIezNFxWprjNDVFGR5JMjxSGe8nhU3iCxJilEKhiOv6M/UjENBRUGhWYp6tWQ/m6DjN8cmzS0elsEn8gYPDiEhiLaAsp9FojsboUr1L/agXc3Scw7NL01LYJP5hmKSvB76EQiYRTM/mj9aTOTpOU1OUeJNsNCnxERmRw8XfXT/CIW+bUNaTOTqO7KAr8R0DTsLXOW2hUJBOtc2z9erNHB1HCpvEV4yIpK8Hvui6Dhq0KHFP1qtHcxSksEl8RhmbpEhTKPj31NYSibPKw0lW9WiOSmGT+I5hkqTzR5fh+AXTDGKIACFMT9arx1ObFDaJ70iLLK7wbyUCQMTDSVbJUrruTm1S2CS+ZMDxexPKIO2qd9116y2IIIVN4ktGRJKCZfk4iKChKAoxJeLJevVmjkphk/iSEmVy5H2d+hELR4jTmCVWUtgkvqXfTZDK+TeIEAwGadMa0xyVwibxLSmRwXX9G0TQdQ0VxbMRffVkjkphk/iaQXfE1+ZoNBQhrjR5tl69mKNS2CS+ZkQkyRVmn3jUyJimQXsDmqNS2CS+pkiJPJZvKxF0XUdFIULIk/XqxRyVwibxPQNuglS+Pk4atSAaitDcYOaoFDaJ70mKNK4jsG1/BhGCwcYzR6WwSSTAkDvsW3M0ENBRUQk3kDkqhU0ioTLJKu/jYS/RULih5iFIYZNIAIsitlqmWCzVeis1IRgM0q61erZerc1RKWwSyRh9dsK3whYI6GhoDdPKSAqbRDJGUmTI+3iKVcQMeWqO1vLUJoVNIhmjTJmy4mdz1KBDa4x5CFLYJJJJ9Pt42IthBNDRMAl6sp4UNomkTkiKNFbRn8IGEDZDniXr1tLPJoVNIpmEjU1RsX17agsGDTo9jI7WKu1DCptEcgT9zqBv/WyGEUAXOqZH0+JrZY5KYZNIjiAp0hSsom/bhodM07NWRrUyR6WwSSRH4OBQ8nGyrmkadHoYHa2FOSqFTSKZhj5nkNFcqtbbqAmGYRAQOkGPzNFaIIVNIpmGpEij2KrPzVFvknVr4WeTwiaRTIOLW0n98HF0tMsjc7QWfjYpbBLJDCRJk/RpA8pgsGKOGgQ8WW+5/WxS2CSSGRg3R13XrfVWakLIDK1Yc1QKm0QyAwLBqEj5NjpqGAFa1bgnayWLyzu/VQqbRDILSdKk8v4cqhwIBAh51FVXntgkkjoiKdJg40tzVNNUFAXCXvVoW0Y/mxQ2iWQORkTKt9HRcDBEVIl4stZyntqksEkkc5AkTbqQrfU2aoJhBGhRvRvNt1xIYZNI5iAlMuCA4zi13sqy46WfbTnz2aSwSSTzYMRNUSqVa72NZWel+tmksEkk8yBDjpzlz/F8K9HPJoVNIpkHGZHDKfvPFIWV6WeTwiaRzIMyZWzFoVy2a72VZWcl+tmksEkk82TESUo/mwcsh59NCptEMk8y5MhY/kz78NLPthxIYZNI5klG5MBW8GOLNi/9bMsRQJDCJpHMExcXRytTLvuvKH6l+dmksEkkC2DIHpV+Ng+o9qlNCptEsgAyIkfWytd6GzVhJeWzSWGTSBZAljw4/uz2sZL8bFLYJJIFklcsX5qjnvZnq3LjSSlsEskCGZV1o0teS57YJJI6IyOy5ItWrbdRE1aKn00Km0SyQAoUcYWLbfuvdnSl+NmksEkkiyDppimX/WeOrpQ5CFLYJJJF4Nc2Rl7ns1ULKWwSySKotDHyX6cP8M7PVs0KBClsEskiqLQxcn3Zxmgl9GeTwiaRLBK/tjHytG60Si2MpLBJJIvEr22MVoKfTQqbRLJI/NzGKBw0CSlLP7VVKzIqhU0iWSQuLrZmY9v+M0d1XSdEcMnrVKu0SgqbRLIEUnaGsg+HvGiaRkxdemRUntgkkjokTwHb9l9kVNd1ghierFUNcZPCJpEsgYKwyBX9mairohJAX/JaUtgkkjojj4XqKrXeRk1wNYGpeOBnk8ImkdQXAoGt+nPeaNQIEarTlA8pbBLJEkk5Gd/62byIjFajtEoKm0SyRPIUfHli03WNJi1W621MixQ2iWSJFIRFvuS/AIKu6wSE5slaXpdWLT2kIZH4nDwWSh3Odnkk8Tg/3fVb7th7Pwdyh8291ZFVPHXtNi475ukc375l0esrigKKQhCDIvU1a1UKm0SyRFxcHMXFtm10vfbfUoO5BB+4/XPc1fdnzGgEM6TTHmubeDxrZ7l5/2/4zqP/wzk9p/HBC95KV7R9Ua+laSohx6QoliZsXkdGpSkqkXhAysnUhZ/t4aHHeeEP3sKfM4/R3t1GNGoeJba6rhONmrR3t/HnzGM8/0f/wMNDjy/q9UzD9CSA4DVS2CQSD8hj1XwGwp7UAV7/q/ehtKhEo/NLw4hGTfR4gNf/6n3sGtm34NfUdY2YGl3w847E65pRKWwSiQcUsMgVazch3rIt3vyr6yCiLNgc1nUdIgpv/tWHsMoLm76l6xqhOkzS9cwhsDrazYam1dM+ZrsOD4/sJF3KefVyU9BVnS3xtbSHWklYoySLadZEe3CFYHf6SUas1LzXmul9HMwOcCDXT8lZeCeHg+l+/nTgER7r28NocWTiekuwleO7NnDa2uNZ1dS94HUl9UNeWCg1rEC46ZFfknASRGOLOz2ZpsmoleKmR3/Jq05+/ryfp+s6mquhoCBYWv+mZClNs+FNZ17PhG1D02qe/7V/YN/I0cl21z7jjZy6/vgZhS0SCHNcywbCeognM4fYlzm0oNc2NYNSqcy2Lz6Pn7z2S2xsXsNHbv0icTPGS8947oKE7cj30WRGOXXV8bzh3JdyavvxPJB4lKIzP0dp2srw/Qd+xa6RfRUnbkynveWwE9e2be4f2cGdT97P5tZ1XPWUZxEP1WdekGR2nLFftu2g696kQCyEm/72c8x5mp8zYUZNvvPIjxYkbABCFYTcIHmWNmu1LoVtnJdvfx5XnnzJlGttkRb2ZWcWq45QC3/YdR+f/M2X+b83fXvBwqarU/8h2a7DxcecSygQxHKKC1prnPH3kS3m+dWjt/Oa7/4/vnz1R1jXtIqdyT1zPv9Aqp+v3fUD3IhGe3fbtPdUnLgVR+6BbIJP/+FrvO7Mq1kdl6e3lUgBaywyurzC9vDQ4wzZIzTr8Wkfv3j12bz2hKtZH+1mb7afrz78PW478Mej7tN1nZFiikcSjy8oDUTXdUKOSV7UzxBpz4WtORRnfetqHh15AgBHOCRSSQSCLc3r6A53TNybtwskixl6I508wq6J69s6T2Bf+hDdkQ5agocVPF3Ksiu1j3zZoiPUwrEtGyceO5QamPhz2S1zzobTANid3k9A1Vkd7WZ19LBg2K7NI6NPkJrBaTn+PvrzQ7z7wr+jUC7yyd98mW+97FPsTu/HdmeOgA3lRvjKPd/DbAvN298RjZrYps5X7vkebzzrZXQ1LS78LqkdKTdLZ9nGNJc3SrhjZPeMYnrx6rP5+LnvnPj75ubVlb/fef0M4qbx50OPLEjYQoaJWawvP1tVkm5c4ZKwRqdcO65lIyOZJO/96fU8Nribjkgrrz3rKi4/8SLe8ZOPcfuuewDY9qnn8Zkr/5nzN53OHbvv4z/u+DZ7hg/QE+/kTee9nKdtOYvHk3vZ2LSG6275Arfs+ANtkWaee+JFE68VCYR5x08+Rlesjbc//TXEjSjZQp5/+MEHePDQozQFo7z4tMu45ozn80DiUTIzmMiucHk8uY+SY/PSbZdz9TfeyoFkP7FAhNHi9OZtySnztbt/jB4NLMqJq0cDfP2em3nH01+DoQcW9HxJbSlgkSvlibH0BowLYTA3NON38mtPuHrG69MJGzok8qNHX5+FicioMzD3zctEVaKiqqJyfu/2id+rIl10hFp5+48/yvFdm/n+qz7Pq898Idfd+kUe6tvJxy97Fx981j8SD8X4w1tv4pwN29gzvJ+3//ijXHXKs/nx677Ei0+9jPf94nqGsiMc17KRb9z7I367624+/Oy38fHL3s1fDjwy7V4MNUBQCfKG7/0L7ZFmbnz59bzrwtfx9Xt+yI//eivHNm+Y8/3054dY19KLqijsHTlAc3BmP9jd+x6goOQwzcX5O0zTxNKK3P3kA4t6vqR25IWFUoOMD3eWqof10endGjNdByi5C0u21XWNoLL0ppNeFsN7fmL7zzu/ww13fXfi7yf2HMNnX/h+8qUCg5lhztlwGqviXaw6qYuApmMGggR1A0OrnE7CRoi/DD3CpthabnzF9RzXWTE3X3Tqs/nCH27k0f5ddMfaufnBX/OaM6/iwi1n4wqX91z0eq786hun3dOtO/6A7Tr886VvJlvOc1HbORxKD/L1e27mypMvQVEUxCwTOcquTUALEAqEyFg5TG3mL+JdT/wZM750J+4de+/hgo2nL2kdyfJiY+MgcBwHTVs+P1soEIQZPCN7s/1sbj46yr832z/9E2xoD7Us6PU1TUMVCjoaNvXRJt1zYXvJaZdNCR4EdYNRK8WqaBevPONK3vXTj3Pexm2ct3E7Fx9zLmEjdJSD3xEOTWaUBw4+wr/e9mX2jR7Cdm3ypQIlp4xVLjKUHeHEni305QZJWEnaZnCcAuwc2sPx3ZsxtACPDOxiY3wNp646ns/+7htY5SKaomGLmX1mhhqgaJfIlwpEg2GK7vQpHwdS/WRF3hMnbtLOcTDdL9NAVhgWFuWyvazCdnLncTMmB3/14e9N8bFNvj4dtu2wvmX6tK3ZEAqYiklWLC2ly6vIqOem6LjTvUCRHBb9xWH68kOMFtO89YJr+N41n+Pk3q388MFfc+VX38iBZD+mNtXx2BKMs2PgCa79+ad4+elX8Os3fI3b3/JdmkJjOTpj6UIBLYAjXJgjf8bQAmhHRE5d4SIQlF2bubKPeiOd7Bk5gECwtrV3xoDDofTgnE7czc2r0XV9wol78eqzp71f1zX2DFVnmKykeqTd7LJXIGxt34Rt29P2hLvtwB+59s7r2ZU8gG3b7Eoe4NoZAgfja5y56ikL3kMkGPJmapVHAYSqVR64VARHU1RigTDJbIr/uOPbrG7u5uXbn8c3X/pvxEMxfr3j9wBTxGVtrJf79j/EupZeLtxyNgEtgO3alJ3KF87Ug3TG2tg1tI/V0W56I12zStvG9rU82r8L27XZ2rqR3kgnDx58lK5YO7FgZEwcj0ZVVI5pXs+qaBffuvfHHNu5kXUtqwjrIdbHVhE3pvra0lZqUU7cadEhU6xOQrOkeliUsMqLSzFaLJFAmCs3XYJlTZ9ucduBP/KSW97G2Te/mJfc8rbpgwaAZVlcuekSIoHwgvdQaTpZP910PRe2lJVm/2gfTUqUJiVKi9ZET6iTSDDMjff9lC/d9V0Opga4Z9+DDGQSrGtZBUA81ES6kOWefQ+SLxVY29LDrsST/Pzh3/LAwUf5fz/7twlTFOAFT3kmX737B+xK7MNQAvzXH6c/WgM8c+sFoMBHb/0P0rksv3v8br52zw95xfYrKDll3GmEbfx9DCaH+citX+T2J+7h2ovfUHnQFtz+2L1sbd045TleO3Fttz78FZL5UxRFyjXopvt326/GyhYX3cnXtm2sbJHXb5/hB+0c6LpG3IOmk16d2Dz3sd34p59w459+MuXaG897Ga8760V85sp/5rO3f4Nv3fsjWsJxXnn6lTzj2HPZMbqbbWtO4PS1J/GOn3yUj1/2Li7YdAbXnP58Pv27r2FoAV506rMpOzbZYo6SW+aa06/kUGqQV33nPcRDMa446RnT7qfklMjaeb74wg/xidu+xEu/9XZawnFec9ZVvGTb5TyY2DHr+2gyo5yyaitfe8kn2Ni+loPZAR7p38X3//JLXrrt8inPMTTDUyduzFjetAHJ0rEUaiVFAAAgAElEQVQooYrlL61aFe3iH0+7hi/+9Ts0t8/sb56JbDLHG059Mb3RrkW9vq7r6B40nfSqGF65aecvllbgNcZstaIAu1L7aAnGaTObJ645wuGRkUqSbE+kg03xtQDkynkGCsNsbFpz1DrZcp7dqf0EtcCUBN1xEtYomVKW9bHVOMJlZ3IP6VKOtbGKyTpO2bV5dOQJUqWpH+SMtaK5AQ5k+zHUAMc0byASCLE3fZD92b6Je3YP7+dr9/9w2n9YRyZKjjOTvyOZSPGSky7jhJ7FNwKU1IanaFvpamtb1gACVArh33TLv/BQdjfR6PxrRrNZi+PCa/nys67D1BdvTg4MJtjp7CHL0poBXLFu+kPKQvBM2CRQtIt84NbP0dwenzY5d75RUdu2SSZSfOiStxLU66/XlWR2tqob6W3pwjC8GSi8EBL5UV7yP28hHyjPK5fSsizCBZPvXHk9nZGlVbv0DQ+xq7SPLEvzDXshbLVv99lABPUg23tP4qH0zml/Yt524I8zOm4nY1kW23tPkqK2QsmKArbtUANdoz3cwmcu+gAv/Z+3o7frs1a/2LZNNpnjhud+ZMmiBhBQNQwlMFeSwpx4kfLhSfCg3Wzh3J7TOL93O93hwx9QSDc5teN4zu/dzpbmdaiKt7GK9lALZ3SdzPbOk2g1F+5XqAYXHnu2J07ci46dPg1EUv8UKeE4tQv8nNCxhesvvJZkYvauNslEivef9xZO6PDG3WEGTAyWXgboRQDBE6XZFF/LJ277Em/+4QfZ0rx+4nqzEePhQ4+z7VPPI6KF0RVvfQ694U4+eduXueHO79IZmr6DxnLTGorzzM0XkE0u7jieTea4eMtZtITqQ6glC8eiiFWq7XCTizecy4tPeC7ZZHbax7PJLFduuoQXHHupZ6+paaonwuYFngjbeDnUkZhHmFJen9gKTpGLjzmXCzadvuj2RNXgnE2nsbapk2x2+n9UM5HNWqyKdnHBxrOqtDPJcmCJEu5suT/LxNu3v5IW4kflt1mWRQtx3n3u6zx9PU1TCatLz2Xz4sSmn9K+dUpawWB+mL2Zg5TdMh2hVo45okh8Z3IvQ4Vh3FlqK2cjbkTZ2rqJgHpYDJ9IPUm6lGVzfN20KQ6PjjyBi+C45g0TFQSucFEVle4NFdN3d3o/cSPG8a2b0NWpfoW8XWC4kKQ70oGmaOxK7WUwP8yGpjWsinaRKeXYkdxNUA1Mu7f+fIKQbrLliP2Nf1ZHNp40tAAvOeUKPn/X17Esa95OXMNSeNkFl8/4g0KyMihRQrgghKiMqKsRpm7ykQvfzmt/eS1m9+F/g9lkjusuetuiEnFnQ1W9KYb3IuVD/+PuP/Olu77LQCbB5vZ1vPvCv+OY1vWMWCm6Q+1cd8sX+M3OuxAILjrmHN719NehAP35xIJfrMmIcmzLBr5z/0/59p9+imUXOWfDabznotezKtrFn/b+lQ/++nO8+fxXcMNdN1EoWzxz6wX800V/j6IofPp3X+fh/p2EAyHuffJBbn/Ld7n255+iK9bGP1309wB8+76f8s17b0YAlx53Pvfue5CXbnsuV558CZ/6v69wKD3Iv1/xXgYLI3SH29n2qefx5as/wpq2brrDHdPuLaDqrI31cuuOP0z7WT00/PhRbZFjZoRXbnshX7jzxnk7cd987itoMmUH3UbAUR0cx6n5OL7tPSdxZs9pPJh5jGjUxLIsTmk7hgvXe+/D1TQVzYtcNi98bP/8y0/zd2ddzfeu+RzHd2/mrT/6MCHNZGN8De/7xfU8OvAEX3jhB/nCCz7Iw32P87H//U+2NK8/qmvtZMbbFa0+Iqv+2JYNfP8vv+SmP/+cjzznHXzlxR9nKDvCJ2/78kS9aKqQ4be77ubTV76P9z7jjfzor7dy5577J9Z48OCjnLtxGze+/PqjTjb3Pfk3Pnv7N3jd2VfzjZd+krZwM7uH90+7R+WICtHucMeMe1sb62XvyEFm+qw0dXoTe3W8m5ed+tx5OXGff9KlsnNuA2GJYs2nVo3z+lOvwrYqrhorW+SaU66qyuuMn04DdZBsoauKwvmbthMNRnjrBdewvnU1RbtEf2aI3z/xJ777ys+wsX0tqqLwwWe9lVfc+C7edP7Lx5otTlXWe/Y9wNmffuGUa0eWK91434958/mvZNuaEwF421NfzTXfeTcffvbbAFBVlY9f9m6EIjiuaxP/ff/P2DG4m/M2bgfgtDUncvWpz2FXat9Rx/wf/fVWLth0Olef+hwG8glec9ZV3PzXW+b9Ycy2twPJPmb6rI4Uycmc1HMsZ41u44H+h4g2H50Ckk1m2d57EmesOXne+5TUP1k3V9PI6GS295xEqxanZNuYisE5q06t2msJRWAQoDxTCc48WWrKh35y73Fc8dU38vTNZ/HUzWdw1SnPQlVU7tn3IKGAyTGdG7hn4EEUFM7oOplgwGD38H7WtPceJWwn927lXy5905Rrfz20gw/9+vNApaj7UGqQD/36c1x3yxcAEAhc4TKQGQZAU1QiRog7++7n3J5thAJBCqXCxHqBMf9ZX26IzfF1U17rQLKPp24+A6j4ArvC7XN27hhnrr2dvvZkpvus0qXstLWmk3n2seez4+DjR/nbLMvCdIJcfuLT57lLyUrBokS+ZBGJeOvHWiznrt7Gj5+4lXN6TsMMVK9YXdd1DCdAThTmvnkWlixsN1z9Uf56aAd37L6Pj9/2JXqaOvjSi67D0AITUUwhQFEqzlBXCMp2GXUap2goEJwy72B90yq6Mh1H3Xfds9/OMR1TgxJdsTZ2J56c+PuighMKqPNMKZlJ8Gbam67qzPxZGRTsmQdZGFqAF532bG6456ajnLivOPUKmYjbgBRFsW5ObACXHft0fvzErbz21OqYoeMEdQOj6EEAYYl+Nv0nf/tfrjjpGZzcexwvPu0ynvEf1/BQ3042tq0hV8qzZ3g/p3Ucj65qPDrwBCW7xOaOdaRKM6cyjM87ODLCGQtGaIu0cCg9yEXHnINlFzH1ILlS4ahI5mJY29zLowOVoTDj+XST5TFihCZOfye0bZlogzSfvd2x+z4SudFpP6tQKDirsAFsbFvDptb1HMwOTThx18W6ZS1og2JRghrOGT2S7T0ncc8rf1jV0xrUTy6b+snf3MD/PnYHfelB/vexO9FVjVXxbta09HDRMWfzgV99lseH9vJI/y6uu+ULPG3zmaxu7iEzi7DNxitPv5Kv/PF73LLjDwznknz17u/zmv/+p1lbc8+X5z/lUn77+N384IFfYZdsvnb3D+hPD008fmzXRh44+Ci377qXvtFBPjxmcs5nbyWnzEyf1XzbC1205awpTtwLNst8tUbFwUEgcJza57ONU21Rg0qb8LAaWvI6S0350N9y/iv43O+/SSI7ypqWHj753H+iJdzE3vRB3n/pW/jX//sv3vD9f0FXNS465hze+fTXsiv1JOVJ4+dmmo5u2VOTZneM7ual2y6nUC7w77/9Kmkry9buzXz42W/zJN/ntNUn8PanvZov3/VdvnTnf/PMrRfQEW0FKv6yp20+k8tPvIgP/OozhI0QV53yLH63q3JsHsgPz7i3nF3gwi1nM9Nn9Xhm37z2t7FtDWHMyuxJVLZ0rF/ye5bUL65ij80/qFo/17pD01RvctmWaIoqe1IHxOS0iVQxw67Uk1hOkc5QG1uapzrodyb3MFgYmXLCajdbOLZlA6qi8nhy70SOW0g3Oa5lI9FAmP78EE+k9hM3ohzfunlKFUJ/foihwigbm1YTCYTZn+1jb/og3eEOtjSvo+zaJAojtIdaCaj6xGt0hdvYEl8/0Z6o0iF380SAAeCyG17Ha896Ec/Yeh77s31sbdl01IeQLmXZmdyDqQWn3du+zCFCWpDjWjYx3WeVt+fvKP3hA7/mvkN/Y3PrOl531ovm/TzJymOt0svG+BpCofrpLFttXFcwmEjwF2f6qXELYSldPhq6bdH5vdunCNtfhpb+YS+V3cP7ueGem3j9mS9mY9vR/eYkjUOX0saWyAZiMX81DO0fTPBXZwfOEidWPa3nzEVHRmufSbdMzDQUebnZ2LaGD1/yNjkM2QdYlCiWS8s+QLnmjOWyFWo4iq+hhW1v+iA/f/1XKNgWjyX31Ho7E0hR8weWKGLXUcrHcqFrGoYToCBmzxSYi6XksjW0sO3P9k1p3S2RLCdlbJSGdfTMjKEbGKXa/vD2T7hGIllmXFyEEJ6kMq0kNE2reS6bFDaJpIq4iqiL3mzLiaapRNSll5ItJeVDCptEUkWE6uK6fjuxeZPLthSksEkkVaToln14YtPQRG2lRQqbRFJFXFzfCZuqqqhCnbWd13xYSlmVFDaJpIrk3YLvTFEAoVLTAIIUNomkitjYvjuxwViXD2VpwiaDBxJJnVLGOaoZhB8I6gYGtQsgSGGTSKqIjV1XfdmWC1X1pi/bYk9tUtgkkipiCwfbXVr//5WIqqroeDsgfUGvX7NXlkh8gI2NusTo4EpEURRC6tJb3ssTm0RSh5SxK0NDfIaqKktO91jS69fslSUSHyAQCIHv6kUVRUGtobxIYZNIqoyr+C9JV1EUdGXpzYOkKSqR1Cmu6r9C+MqJTZqiEknDUnJLvqs+UFUFRUhhk0galoJb9OWJzYvgwWLrRaWwSSRVxo9lVYoiT2wSSUNj4/jOFAUQCmhLlBgZPJBI6pQyNkUf1osqULOUDylsEkmVsbER/rJEARCKQKtRWVVDTqk6kOrnvoOP8PjAPjKlFCWnjKEFiBlxjutYx6lrjmd1vLvW25T4hEq9qP/G8IE3J7bFjOFrKGFLWxlu/ustPJbYgxmNYEZ0muKHPxDbLnP/yA7ufPJ+jm3fwPNPupR4KFbDHUv8gItb0/KiWqFpGpqjQg3ciw1jih5I9fO527/FPmuQ9u42olETXZ+q27quE42atHe3sc8a5PN3fYsDqf4a7VjiFxxcX84XBTwxRRcTQGgIYRvKjXDD3TehtwSIRs15PScaNdFjAW64+yYG0okq71DiZ1x86GADFEUGDxZNySnzjXt/ihEzjjqhzYWu6xgxg2/d/zNKdrlKO5T4HRe3JuZYrQnqxpLTPRbLihe2e598kJzIYJrzO6kBbG/fys+e8wU+ce672dS+gZzIcO/+B6u4S4nfqXT58Je6KYriibD50hS9Y9f9mEeYn799wTf40lM/xMWrz572ORY23dFuLlp9Jj1mM2bU5Pd77l6O7Ur8iuLX1kW1SfdY0cJ2INVPVuSPMkGjepRt3SewuXn9tM8zdZ1r77yeN97+IXZlD6DrOnm7LAMJkqrh4vpQ2NSamaIrOt3jwGg/uj71J0JXtIM33v4hmvUoe7MHpjx28eqzSdpZmvUo7WYz683V3Nf/NwB0XePAaL/Mb5NUBaH4r5HuRHvwJabwLaYQfkULW7acmfIO/t+2v+MFmy+d+Puu5F5ufuI3/HDXr1gX7eG4tvVsbl7PuugqAJ5IHmRd8xr2JfeDDqP51HK/BYlPEIr/fGy1bA++ooXtyIYJk0UNYHPzev5p22u5eN25fOCez5IoZolmE9xx8AGSVpKknSVlJSfu92t2uKT62I7tO2Hzqj34YoIH+vm926dcyNsFwnpo4u+Jwii70/txhcvqaDero4dNNSEED488TtEpcWzLRqKB8MRjBduiYFu0ms1H3T9aTBNQdVZFu1gT7Zl4PF3Ksiu1j4JdpDvczqb42il7e2RkFyNWciJyHjZCMI/JZtvaj+MrF13HZ+//Jg/0P8R5q7ezOb4aYMIUxYa4KasQJNXB9eGJzav24ItB//o9N/Pf9/8Uq1zkuSddzCtOv5K3/uLDPNy/izXN3fzzJW9iY+saXOGSLxR4y80f4v79DxELRrji5Et447kvZTA/zF+efJj3/vxTXHnyJfz0odv4+GXvpjfeyQd+8dmj7n9g6FFWRbsoFov8ww8+wF8P7aC7qZ03nvsyLjrmHJ7MHKJJj3Ltz/+Nu/b8maAe5FlbL+CtF1zDI6NPkCxWFLy3qQvbnt8pq9ts5+PnvpOEleTBxMM0681s6z6BT9z/XwDYtkNbpHmOVSSSxSF8GTyoXXtwfSAzxH9eVRGy6275Arc9difvePpreXfrKr5853f58C2f54ev/iKO6/Kqb72H8zZu4+bXfJEDyX7e+ZOPs6ltDZccdz6PsZt82SJftrjh6o+yKt7Fi77x1mnvf+qWM3Fdl1ff+B6ecex5XHvxG3jg0KO87xfXs6FtDRvb1vDPv/h3hnNJvvmyfyORG+W9P7+etkgLl5xw3oSwrYp3opYVbNueiIz+dO9veErzsaxvXj3tG243m7lo9blTrtm2jVpW2NyxdtrnSCRLxY95bLVsD66++8LX0xpr4XknXcyxXRt56uYzuPS48zm2cyOvPOP57Bk+gFUuYjlFPvW8a3nH015LT1Mnp689me1rTuTBQzsmFtNVjWsvfgOxSJSAHpjx/qBmcNtjdxLUg/zjU1/FmpYeLj/hQs5cdwq37PgDAPtGD3JSzzGsb13N9jUn8bHnvJMtHesoO4dtz6Ae5ORVx2FZFgAHsv38et8dXHXL2/jmjpvnfPN7s5X0DsuyOHnVcQT1pQ94lUimo+AWfSdsXrUHXwy6pqo8PPI45/duJ2KEaA5VumHsSu0jFKh8o1t2kZgZIagbvPcX1/NI/+PkSxZFu8jzTrp4YjFVUdFUjT3pAzQZ0Vnvf2xwD0+OHuK8z1498fySU57otvHqM1/I+3/5Gf566DHO33Q6lx53Pl2xdh4deWLKG7jw2LO577d/wzRN3vCbD9ETbQcgUcyStbNE9SgAWTtL1rI4aA2wN3mA+wYe4rYDf8S2baxskYtOnz6ZVyLxAteHJ7Zatgef0bN35BfBdhz+4Qfv54qTL+HDz/pHosEI7/mfT0z7XEMLEFD0Oe8/ZdVW3n/pW6ZcCxshyq7NhVvOZtvfn8jvd93L73bdw5fu/G8+9px3cvKarSSs0Yn7W0NxnrH5PH67924G9CEGrCEAbtrxM27a8bM5P4BsMsfFW86iJRSf816JZLFUEnRrvYtaUJs3Pe9Y7J7h/SRyo7xi+/OIBiMAFMrTtzsOasac929oW82ekQN0xFpZ1dzNmpYe2iLNtEWaEULw+d9/k3ypwOUnXsT1V7yXy0+8iO/95Re0mkcL0PmbtrM20kk2m13Qm89mLVZFu7hg41kLep5EslD8WHkghKi0+KgB8xa2rlg7hhbgK3d/n4f7H+c/7vg2f9zzF0rO0fkWtuvMef+ztj4VXdV4/y8/ze7hJ3mobyfXfOfd3LbzTgwtwB277+dff3MDe4b389jgbh7q28m61lXT7s3QArxk2xUYtjrhb5sLy7LQC4KXnXY5hhaY78cgkSwKPwobVIImtWBaYcuUchSdqW18WsJxrnvO2/nNzj/yph98gP5Mgpef/jzsaYTNsi1iZmTG+wUCyy3xhRd8gGQhwytufCfv+MnHuHDL2Tx989mkS1muv+K9OK7Ly7/9Tt7w/X9hU/ta3nz+K9mZ3DPtG4mZEV657YWUMiVse/bkNtu2ySZzvOqsF9Akc9cky4CLS8kp1Xoby0otdVy5u/8BsTd9kJ5IB5vj6yi5ZXaO7iVn5zmmeQMtwSYG8gn680NsjK8lFohMWaDs2vTlhmgz40QCYfZn+9ibPkgkEGJL8/pp738i9SSpYoY1sR56I51THn945HEypRyrIl2sifVMeezx5D4GC8O4s0zG+FvfY3znL/9De3fbjPck+oe54vhncNb6U+b7OUkkSyKuxDjGWE97a2utt7JsuK7LQCLBA86jS17rinXPWND9yk07f9Fw5+OfPPJ/PND/ENHm6FGPZZNZTmw9hhee8swa7EziV2JKhGMDG+lok8K2GBYqbCu6bdFMPPvY84mooaP8bZZlYTpBLj/x6TXamcSvzGZlNCpCVLqa1IKGFDZDC/CCk55JNpmbcj2bzHH5iRfKRFzJsuPHKVW17IfekMIGsLFtDZtbN5LNVk5tlmWxMd7LCT1barwziR9RFRV8Jm6V4EEdRUUbhQu3nIFtVXLnrGyRczeeUeMdSfyKioofZ/DV6h03tLBtbFuDKYxKkTwqWzrW13pLEp9SEbZa72K5kaZo1TiuaxPJRIp1zaswdJmIK6kNKgpKjbLwa4UQ4Ih5NEysAg0vbKetOQGAp246s8Y7kfgZFZWgZtR6G8tOrc5sK7o1+HzY2LaGD1/yNnlak9QUDdWHJzZRM/O74U9sgBQ1Sc1RfShsULtZqr4QNomk1lSErda7WH7qqgheIpF4i6kGfXdiE6JWsiaFTSJZFhTwnbDVEilsEskyoPjQx1bxr0lTVCJpWFThvzw2kJUHEklDoyj+O7HVEilsEskyEFA03wlbJXggTVGJpHERikz3WEaksEkky4Afa0UBim5t5jxIYZNIlgPhv3SPWk7lksImkSwDik9PbNIUlUgaFH/2YhubeSCFTSJpTFTffpvJqKhE0rBoPj2xua7AxlnyOs1G04KfI4VNIqkyKgpuDdtk14qiXfJE2BaDFDaJpMroio6uarXexrIjhMBGtgaXSBoSHR3Fh99pwgVbzjyQSBoTHY2g7sN5B65LWZqiEkljEkBHVX34rSbwxBRtDsYW/BwfftoSyfISVkO+EzbXdXEVme4hkTQsGpoPhU0gFLdmr++vT1siqQEaKqrqr0Q213UpexQRlXlsEkkd4kcfm+u6OKI2gQOQwiaRVB1VqD4UNkHetWr2+v76tCWSZWZ8ULLfOnu4rutZcq40RSWSOkNH82WdqGUXa1ZOBVLYJJKq4kf/GoBwhWfBg8Xgv09cIllGdEX35awDRO3KqUAKm0RSVXR08FmqB4DtOtIUlUgalQAapg/rRFWPyqlABg8kkrpD96GPTQjG6kTliU0iaUhCquk7YRuvE60l/vrEJZJlRvdhcq4QtS2nAilsEklV0RTNl3WiDrUrgAcpbBJJVdEJ+O7E5roCt4b+NZDCJpFUFUUoPhQ2t6Z1oiCFTSKpGjqaL5NzvWxZtFiksEkkVcLwoRkKYNkl73LYFtEWHKSwSSRVw1AMf36HeTQoeSn48WOXSJaFIAHMQLDW21h2hBCUa1gnClLYJJKqEVUjaJr/vsVc17tByTKPTSKpMwIE0DT/TYDHhRJlT5aSwiaR1Bk6mu+EzXEcHLW2ybkghU0iqRqGCPjOFLVth6IoebaePLFJJHVEgAAo+G7WgeM4Na8TBSlsEklVCBJA9dlpDcBxXDJuttbbkMImkVQDv+awFctFinhnii4WH370Ekn1CRIgFDBrvY1lR7jCMx/bYqsOQAqbRFIVfJvD5gjPTmzSxyaR1BkBH6d6CLzpniuFTSKpMwIYPhQ2l5KHqR5LQQqbROIxCgqqUHxninqZ6gHyxCaR1BUGAX/OErUdMm6u1tsApLBJJJ4TVAw01V9mKHib6rGU0xpIYZNIPMfAQPGfruF6mOqxVKSwSSQe4+scNq9ObEvIYQMpbBKJ50TUsA8DBy6u4uJ6NHZPmqISSZ0RQPdhqofjaaqHFDaJpM4wfNhg0utUj6Wi13oDEkkjoaBQxmZwKIGqaSiaQtgw0XUNXdcb1kR1nPpJ9QApbBKJpwgEDzk7UVAIuSYhO4hZNImpEYIE0FDHBA/CRnhC8NQVnvdmlUuedvVYqikqhU0iqQICQZ4CeVGoXBibRqejEXJNzHKQeCmGoQQIugaKWqlUMI0gAcMgaARqt/lF4DoedvVYoqiBFDaJZFmxcciIHBlyDDkjE9eDroHpBAmVTFrVJoLCRNXUMVM2iK7r6Hr9Fta7rlsXfdjGkcImkdQBRUoURYkUGfqdoTFTNohpm4SKQaJqBFMx0IQ2JngQNkITglfLifOu6yJwcbxK9VhiDhtIYZNI6pKKKWuRF1blwpgpq6ERcoKYSpCQZRJRw5gYqKiouoo62Xen6SjL4LtzHMezcXsgTVGJxHc4OGTJkxX58QtAJXfOdIOEMGkqRo/w3WmYhoGm6WPBCs3TITO27Xo2INkrpLBJJA1AGZuysMmQY9AZnrh+2HcXpEmNEiBQGQsY0OhobfXktb1O9ZAnNolEMitTfXcJADRUnmJv9ew1rDoZ4DIZKWwSic9wcLEVh3LZJhBYuARYVhHbtimUSziOjeIqdTEkeTJS2CQSH5J00rSUmxYlbJl8jv2lPkqUKYkSJcp1MSR5MlLYJBIfEUDHVILkKWBZRcLh0MIXcQVpkaFA0fsNeoQUNomkwVBQMAliKgZBgpgYxPQouquhoOCqgogRQtcXl+zruq7nBe+ntFV8fvLEJpH4nAABTMXAJEgQg+h4ParQEKpA0zRCRhBN0yaqFpaayCuEABTs8TwTj1gfXe3pelLYJJI6RkWpnLqUing1qRFMNYg2dvoSmiAcCE0IV7XLrlzXxVG8qTAYx6tT2mSksEkkNUZFHTMdg5gEiaphVNSxbiAaQnHR9QBm4MjT1/J3BHFdl5LwrsoAvCmhOhIpbBLJMqGjHSFgEYIYaKhjpqNO2AiiqiqqqtZl0bvjuLgem6HyxCaRrADGI48mh09gQYIoAKogbIQnTl71KF6z4bouedfydE0pbBJJHWEQmCJgcT02EXmc7PuqdM7VGqJ7biUi6rEpKoVNIll+TIwpAtakRyvOe0VB1RTMgDnFeV/LFkJeI4TAth0cx6lMei/mPE31qIaogRQ2iQSYmvtlEqRJjRBUTHShIhQFfaJDhjbRA83LDhm1ZlzAbNvGth2K5SK246K4YKsOlrBIuzksiiRF2rPXrUbgAKSwSXzG1AhkJfcrpFTSJw7nfplT/F+NJGCu6045gVnlIq7tVoRNdUg7WSyKld9irLjd2+yOKcgTm0SyALSjIpCVhoyV9AmBruuTklf1RWfh1zO2bVMqlbFth1y5gOoouAgcxSHlZKYIWIlyVQVsMuy7aUAAACAASURBVOtjq4CKqHmdmDuOFDbJimb6CKSBgjoWgTSnNFhcSRHIpWJZJfZmD2BRpDAmYMvdEHI5RGw6pLBJVgRHRiCb9di02fcV8Wrc+Z0LQdc1QqrJfqdvWV5vfWzVhGm5nCI2HVLYJHVFcJoI5OQUisgROWCNFIH0Gk3TMJWg5+s2G000B2N1I2LTIYVNsuxUIpCHBSymRjAVE11oCAV0TSMYMKacwFb6QOFaoOsauvBW+E9p21qXQnYkUtgkVeNwBNKYKCGaKQI5fgprpAhkral8lgoGAc+mSCVL3qV6VBMpbJIlczgCeVjATIyJ9jlTI5CVKKRkeXA1QdA1PCtc35s5yCmtx3uyVjWR/8Ik82Y8AjnevPDIIu5QwJxInfBbBLJeiQRCBMtBMng3RWolIIVNchRHRyCjaK6OArgqE91Xx3PAZASyftF1DRPD0zX3Zg/UvZ9NCpuPmTsCGZqSAyYjkCsPTdOIqGG87DS0EvxsUtgaHAUmOrCO10CaqonmqihKZUq4jEA2LtVK+ah3pLA1CJUI5NQUiqASRHc1hMpEEfd4Cx0ZgfQHuq5VfoihIBCerLk3c5C9mYOVfDajaUp1Qb0ghW2FMXsE8nAL6cknMKlf/sZVK5FRy+NxeclSmmQpzd7sgYlr9SJ2UtjqFB39KAGb2kZaI2yYU05gEsl0BDQN0zGwRPXngB4pduPCttxiJ4WtxkyNQBrEtRia0FEBoULYWL4JRJLGJBgIEiwFgcyyv/Z4oGE6sVsfXT3Rj81rsZPCtkxMjUAaNM3SRlpGICVeousaQY9TPpbCuNg9MPLIxLUjxW6pQieFzWPMoyKQwUltpDXMsQhkI7aRltQnmqYR12Isc8eiBeG12ElhWwTqRBvpShZ+00QEUkWojd9GWrKy0HUNzeNi+OVgJrEb99fNJnRS2GahEoE0psyBPLIGcmoEUgqYpP5QVRUFFQ0Nx+OZoMvNeHAiWUrztJ4zZ7xPChvjEUhj2kG27lgb6bARnEifkBFIyYpDEZgY5CjUeieecErb1lkf95WwGQQIjg3xMAnSPBaBbIRBthLJbOi6TtAxyInGELa5aEhhW0gEslEG2UoksxEKBAkWG6O0atzPNhsrWtgmRyArAuafQbYSyULQdI2YGqFvZbvY5k3dC5syKQJpygikRLIoGqkYfi7/GtSRsGlTBtkGiYxFIHUh20hLJEulGvMP6pllFzb9qEG200cgG3mQrUSy3FRj/kEtmI9/DUA3CXpe9Q8QIDBRwH10BLJSAykjkBLJ8uH1/IN6Ru9U2nhSHFr0AocjkAZBgsRnjEDKQbYSSS1phPkH4x1C5kJvV1sYcBIUKc1642Hz0ZhoI31kBFIOspVI6pdqzD9YbuZbL6pHwmE6s23sF33TRCDDBBUTXagIRZGDbCWSFUw15h8sJ/P1rwHo4XCIjnwrrUpcDrKVSBoAIQS27WDbDo5jY5VKOI6DcAWqT76PdVVVaGmOo6qKHGQrkawwKgJmY9sOVsnCdlxwBY7qYgmLtJulQBFLFOd0N9U78/WvwVi6h2EEqrYZiUSydBzHmRCxfKmIbduoroKjOliiSNrNYWFREMVKloNb6x17j+zHJpGsMBzHxXEcHMfBFS4KCrbtkC8VUFwFR3GxRJGsmxs7gVkUKCJcbyZP1TsL8a+BFDaJZNmoCJc75vtyKJaL2I6DIhQcpSJoaTeLoQYouJWTV+UEZuE04hGsikhhk0g8ZNxkHBexYrlUES8XHNWlKErk3P/P3nnHt1Hf//95Q6fh7TjD2SEhJAHCDpukJGFvyoYW2tLSRUv5ttAy2kIX3Yz+oNBCoZTSAmWWFTaEQgghCRmM7EGWh2yt2/f74yRZsuV4SbJs3/PxyCMPy6e7k2299Pm81yuOjo6GjuYYaOjYmcI1QLOWhaQn8TXwhM3DIy/s3NWIbTvYortljNlxV7jQ0ZPiNVS2jYWgp+YunrB5eOQBG5tP7PXE7KExyLGY9DS+BuC1B5QIkiii+Hz4ZNmrGRyAyLI8aMYCDQY8YSsBJFFE9vm45y2NxZuGThHlYCKouN06Hvmnp/E18IStJJBlmbvfSLBglc7+42Qcx4vFDDQkSaJcLOvv2xiU9MY82YuxdYEkSfh9bgGzbhqYZlvKyifL+JLdGpZtI/Wg8V/TdRzHQfH5cAQBAYH7Lq0k6BNQdQEcJ+vaHZ5vGFiWhSxJ7jlw0A0Dy3Kza6Io4ld8bj2UZaEbnY+qEQQBxScjidmjo1LXSJ1P8cmIQttrdBwHzTCw7a5LEdbsgNc/ghVbYXtYwMb9VB1R6TBzHBw9DaaO7PI0JYu3FS0MvYmvgSdsXeKTJb79cIRNjRZPfrPa7blzXDHwyTJH/7qZedMVfnxqGefd3cKMepnzZ/k57g/hTs/59TlBvn9cEEkUeW6Fxm2vJFi3y+Lh91QuOzLAFw8Pouk6ik/mR49H+ce7KgCiAKOrRU7Yx8/V80PIEig+X/q6N5wSwrLc2XqKT+b+t1VufibGe9fXUiaLWDkESBAEgn4/C9ca/PaFCB9vtyjzC5y2n5+rjwshy2DbDgFF4YmlGne+FmdDo82YapGLDwtw6RFBDEPPeW6AxqjAva87LN4oIMsQkCEUaPt+VBd45WN4cSUcPMHhsmME6ioG3opVliUkW0REwGbg3f9gwxO2LnAch1Nm+vna31v5rMViWEhKr5RWfmayqcnilJnZo2Am1Um8cnVN+uvj/9jMdSeXccye7nHVIQFJFHliqcb3H41y1bwgsyb5WL3N4pbnY7QkHK48NpR+/iETfdxydjmOA5/uNPnJUzFaEw6/+Xx51nVTsTlBEBAFkaeWadgOPPuhzoWz/Fhax4GisiSxfKvJF+5t4TtzQ/z8TIVdEZufPxtjQ6PFX7/oflr+c5HKT5+Ocf0pZRwyUWb1NoufPBVFNRy+MSdEXFU7nHv1NvjNMw6aI1Ae6PDtNAEZkGHpVoHvPORw/WkwvX73v5dSxBEdArafOB1/Fh69ozfxNfBibF1imBaf28tHmSLw/Ap3FQXuNvTZDzXqq0QOnJC9XVQkgTFVFmOrLSYPdyejjKwQmTxcZGyVRbliYtoONz8T4ztzg3xjTogDxolccliAn51Rzu2vJGiMta2AQgpMHi4xvtbmxH38XH9KGY++r6JbuVcGkiiyJWyxdLPJpUcEeWqphigI5EpJyLLEk0s19hsrc+WxIaaOEJg9VeFXZ5Xz0mqd9Y0WuuXwy+difO+4EBcfGmByHZyxv5/vH1/GHa8msByH9vmOjY1w0+MCliO4wtUNAjLIgsBNjwus39W955QS3nY0//RmGwqesHWJbdsoksC8GQrPrdARENLlGM+u0Dl5X39OwbBtOx3vSmHZNpZtIwgCSzaZNERtLjw0gGYYaLqBquucPFNBkeD1TzrGxEzTwjBNpo+SsR3Y0px7++fzyTy9TOPA8T4uPTLAexsMtrfaiJ2MX5dFaIg66JaDKApohsG+Y2UevaKKujKRd9cZtCQczjnIj2bo6IaJZujMn6Fwxv5+mmIOZPwUDBN+9wIoMuQaGFMRgH3HylTkWMXJsvu8Xz8H2gCbYB3weZnRfNLb+Bp4wtYtTNvilJl+Fm8waIjaKD4fH+8wWbfL4uSZCoZp9uh8kiixvsGiOiRQGxLTAXrbtvGJAmNrRDY0dOyrEQQBWZbYErYQBKgJdZRUIZmIeGqZzgn7KEyoldhrlCt0qdVmJoZpctGhAZpiNmf+vxb++6EBgoxPFDhgnEhFQGBLs025X6AmJKbF2rZsqoMWN58epMpvQUYmd8EK2BEWcopafTX89uIQFx+l8NuLQ9RXdzxGlqEpKvDyyu7+REsDOend6dH/eMLWDUzTZPZUHyFF4PmVuhv0/1BnTI3IgeN9mFbPmvsEAWKaQ1Uw94+/OiQS1TpuM4N+PxsabW55Ps6x0xRqQh2fL0kia3dZrPrM5IR93JjeSfsqPLVMy1ptprAsmzHVAs9/p5o96iSu+leEA29u4ub/xtAt9/xx3aHcn/08B3cFqekGpmVlhcufXtp5TO3SOX5e+8jimofjvLbC4tI5uVc45QF48oOBVc8ny4PHu7MU6G18DTxh6xa27aBIAvNnKDz3oRuAf3aFxsn7un/EPa07cxwoUwRaErm3ki2JbCF581ODPa9vZMp1Dcz5TTPVQYHfnlOOnmOlqMg+nlyqMXOszNhqd+t58r5+lm8x2dBo5SxJMS2L+iq4/YIKFl1Xy1XzQ/xnicZlf2tNnlMgpnd8jalSEzlji7tmh0NTPPfrrgjAgeMlnl/q/gyfX6px4Hgp55YUIJyAT3bk/l4pIkmS6wOSMzjh0VN6uw0FT9i6jWm529F31hks2WTw8Xb3655uQ8Hdck6okwjHHZrjdtp6UBRFLMdha9hi/LC2X81BE3w8/51qXvhuDYft4WNEpUhtSMTuZKX41DKNFVtN9ry+kT2vb+SEW8Ppx5V2dXGKT2blNmhOCOimQZnP5CtHBbnnCxW8s85g5TaTsTUiEdWhJWGnXcYkUaRVl/jtApVWvW10/Lpdnb+px9bJNLVCc9T9ulmFna3u452xZlsXP8wSQhAEHJEBb5hSCvQlvgZeuUe3MS2TY6YqBBWBax6LMq5WYr+xMokcJRRdn8vi4AkKw8pEHlqk8s05ISxJRBIlnlmukdAd5kxte3OksqK2Y3PjKWWcekeYy44Iss/ojr++FZ+ZrG+weOSKKoaVtYnjvxerPLVU48pjQ+4bMLnKlESJHzzaytzpCj88sQzDMgGHUVXuc20bZk1ys8L/+UDjsiOCGKKJT5J5fJnKA2+r/N9xIQzDPV9TtOPr/fYJfo6Z2raqe+TKUNb3bzpLARTe+MTi9uezf56tA6xyQpZEApafhJN/r16P7uMJWzdxi1QFjpuh8NgSjStmB4Geb0NTz5EEuO7kENf+J4YiCcya5OPDrSq/eDbGFbND1JV3XExrusHeo/2ceYCfm56J8p+vd4y8p0o3Zk30oRsGDg6yJHH+rAB3vZ5g9XaTKXVSeqVpOzZXzAly7WNRastEjtrTR1wzufXlOFNGSEyrl/CJAt87LsRvXohTERCYOUZm1TaNW56P843PBZFFgRw71TSjyjv/XlfHGT1fEPcrAcVPQPfibH2lL/E18IStR6S2o48t0Xa7DbU7ETs7Yx6XZhicfWAAnyTwp1fj/OaFOPVVIlfNC3H50cnOg3ZeFI7joJsGPzi+jNm/aebp5Rqnzmx7EznAM8s1vnh40HUqSmdbHSYN8zNjtMxTSzWunt8W1NINk88fGKBMEbjr9QS/XxCn3C9wxBS3KFhwbFTd4itHBfFJcNvLCba32IyrFblybjDdJbE7ygPuam3VZ9AQtbJWb298YlFXLjFjdNtxmeRI5JY0kiRTIZazzRqAhXglRF+2oQBCSyTq9X90E1EQUBQfouC2J+mGkV6xddazmeontR0H3dCzxE0UBRSfL7v/EgdNd/sv3V5RGRDQDTf7KAC+ZMDedhxs20aWJBwcHMdBFMSsc6SQZQlFTt6fbmS1QImCgM/n65BYMEzTzXg6jtt76vNlZVVz9You3wQ/fyY7K/rXr4SoDMGLyy2eWapx2xfatqJXPhDnhP39nDRTojUOX/5LW+YhqsJ1pzjMHN/DX1Q/YhgmO8ONLDc/6u9bGbBUK5XMqT+0T+cYYJ+H/YvtOKha7tWJaVk5yz4M0+x8ZWd3fj5wx0zH253TAXTDyGpq312De/r+kj6TOe/Dcbpcddm23a144pRRQofp/JVJHTtsisRrH8lc+UCcaaNkPtpuUh6QOWqKlHVc+prAnvUCDKDeS1mWkJ3chdAexcMTNo+8ElIc5uwJb693W6kySzkqQ/CLcxXe+ESiIQz7TJSytqXgHh9RQTVhzp4OwQHmDCkIAo4AAfyuDZ5Hj+lrfA08YfMoAKcfIvDWp0AnLVXtxSyT1PG2CacfPLBWaynczKiC6mVGe0Vf42vgCZtHARhb7XD6gfD4Ejced85tnVTsdkJUhTMPdBhb0/WxpYjfl8qMRvr7VgYcfa1fS+EV6HoUhLMPhmmjHNQelmuoJkyuc58/UJFlyWuG72eG/Iot15Ray7bQDbPoI7p3NzEXSGdGe0Mqa7u782RmcE3TRJbdjgLDNDtNPHSGT4bvHi9w7b9BNXJvSdtjmhCS4OqTbHzywG1LkmWJSqkcBlgNXimQj/gaDHFhk2UJ3ZL51dMxnl+p0RRz2Hu0xP8dV8YRk90RPT7ZHYe9u+xmvmg/MTeTU/fzc+t5oU6FLbN0pP29ikkHrIv/2kJlQOTW80PQibAdcUsTVx4b4vxDAjy6ROXv/1N54ptVPRY2gJoyh++f5HDDY+7GoCtx00249lSHYeUDR9RSBskpk+S4nkCwQfA2Q70iH9tQGOLCpsg+vvXPVjY2WtxydjnDykUWrNS55N4WHr2iigPGuVMxbnwyytIbhxVc2FLN06mJuZmU+4VOx28DyXYsI+e9ioLAI++rGBb88fxyHLt7r+OA8T4EetddkWLKSIEr5zv8cYFA+W7+2qIqfHWOU5KTcx3HSQuXaVokDA3TNBEdAUtw3d2jdgwVHQ0N1dEwvOVaj8lXfA2GsLAJgkBEc3hxlc7fv1TJ0XsqmJbF3vUhlmwyuG+hygHnZ28LA34F3TCRJBGf1PajSxXE4jjpAt4Upm1jWxY+n5w19aG9MUwmqd5QzdBTF8DBwbLaCm0zsWwracTSdr7293rGATJnHxhAFEBLTt7NNHzJxeQ6icl1klsYnJwFl+t1d2XmcviesOozhxdX5h5nFFVhzl4wd8ZuT1NwbNvOEjDN0DAtG2wHS7TRHI1IUsBUR0NDw+pQtedRCgxZYQOQBHfu62ctyeGJjo1pwc1nlJPQHS5/oJUXV7niMuHaBu69tJK50xTWNVjc+GQLizeYVAUFLjsyyBWzg1i2xasfm3z7oQgXzArwr8Uqd1xYwZypCn95K8E9byRQTYfZUxVuOr2MkI/dbvHaT+CVZYmYLvG9RyK89rFOwCdw+v5+fnhiKOe9HjvNx7pdNj99upV31xtUBgTOnxXg6vkhNEPH71P429sJbnslgQB8/iA/mRr117cSPPyeyoKrahAE2NhEztet6nqX4nbJkbB4o0NczR5AaZpQFYJLj+n+762vpIQr9X/MSCBa7mAAU7RotaLuyispYCoann4VnnzF12AIC5vjOIT8Al84PMD1T8T4dIfFBbMCSW8Btz3pjgsreHq5xs+eibHw2loCPohoDhfc3cIRU3w8/e0q1uy0+MFjUapDAucfEgAsYrpDTHf419eqmFArcf//Ety3MMGtF1RQGxK44ckYNzwR4/YLKnYrbKFA2/LGsNyJGt9/LMKuiM2T36xmZ8Tm2/+MMKJC7HCvfhlsBy7+awuf20vhF2dVs6nR5vIHWpk6UuLUmX4WbTD46dMxfnhiGUdP9fGfJRrbWnK/g+OGyAV3N+d83ece7EftoitBkeFbx8JNT5G1JVVNuPqEwhTiurEvM2MLqSLYAhYWGgYxO46KhpYUMB3DE7B+JF/bUBjCwgagGTo/Oa2caaNk/vxGgnveTLD/OJlrTizjiD18KLI7YBLcwZC2bfP0Mh3ThlvOLkcSbPYc4Wdzs82fXk0khQ1kCX52Rhk4NrIkcPcbCa45oYzDJrnv3utOLuOMP4X5/XnlWSOEUqQGS2ay8qe1AKzbZXHkFB+Th0tMHi5x2wUVGKaDXxay7jWhqkg+hT9fUsmeIySCPoGx1RKHT/bx/kaDU2f6efAdlWOnKXz1mCCWbXPdSWU8uTS3QD29TOvydXfF3mNh5liHVdvdrgTVhMkj+tYLmop/pQRM1TV362wLWKKFmo5/aaiOGwMz6V1m2aNw5DO+BkNY2NyguDv2+/xZfs6fFeDd9QZ/eTPBxX9p4YEvVXLUlOyBgaIosmqbycyxMookEFcNFJ/DrIk+fvFsjERyJpkoCMiiQEIziRuuZ8D3H41yzWPusDLHAcuG7S02daH2d+YOlmyfPBCxsWyBb3wuyPf+FWXJRpO50xVO289PfVXHDJyDa9ISkOHKf0ZYtsUkpjmopsN5B7tCtKHBYt4M9zVquk4oEEDupCmgq9edS6Bzcer+sPwZQHa3oafu1+VTgLb4l7uFNFENHTsZ/zJFG9VRk/EvV8BUNBx74HUteOSHIStsoigSVmV2RGz2Ge2g6zoHj5c57AuVXPSXFu5/W+0gbAB+SUBupyO24+A4YHRihwfwx/PKmV6f/eMeWSlg5UietU8eOA4YpjtX7cS9/Rz+Qx8LVuksWKXz+wVxbrugguNnZN+rIAgYlsBFf2nl/FkBfn9uBRUBgSsebM04BvzdrBfr6nX7ulmhMXM8hPyuqMmSwcGTsn8mHcsn4gi2a0JsCTYtViRr+6ihe9vHQUA+42uQJ2FL/RH6/QNnJLIgCCzeaPCdhyMsuaGWcr8vHayvrxJpijvJ49qe4+AwdaQ75dawHfyKD0mUWLwhwehqkcpA9jvfcRwqAyLDK0Q2N9ucuI87akgUBKKag4iNubtVTvJbQvJGHEHiV8/HuPiwAOcc5P67/oko97+d4PgZSta9ypLExzstdkZsvnp0kIqA+824DrVJI6VJdRIfbXeVVU4u1Tq7na5ed1zt/urogPE2Cz8VOWC8iKbGCafLJ8ASnIzyibbto1c+MbjJ5zYUethSZZoWqqoRi8XZ1dzMtl272LGzgZ3NjeyKNKHrA8cI0nYc5k1XmDBM4rK/RXhrjcm6RnhokcqTy/T0AMeakEA44fDWGp2WhMPpB/gRBPjRf6Ksb4AXVunc8Wqcy48O5ryOg8PXjgly28txnlqmsTVsc/urcc6+M4yYw1gFIGHAhkaLbREp/a9FdbeBr36k8+MnY6zZabFym8kHm032GC51uNeYIVJfJaLIAre9EmfZFpPfvBjjjU91dNMVoYsODfDf5TovrdaxHJm/v6PyWTj38md3r9vppFHdtm0MwyCRUIlEYjQ0NbN9VwP7jXBXjfuPb2BtdCPrtI18Yq5nqfURy8zVfGStZYuznQanmSgxT9QGOfmOr0EngybNZAtNWzGi4W4HRAfV0YjaMRLJQkQVDRubCcIYJlWNJRjsXiC5FFB8Mi2qyO9ejPPiKp2I6jBxmMiXjgpy3sEBdMNAkGS+eG8rSzaa3HFhBfOmK3y60+T6J2Is2WRSV+6WPXz1aLfc47VPLK54MMKnPxtGXFWTVf8Kt78S58F3VMIJh5ljZW46vYy9RghZs9SCAT/XPR7L2Xlw5BQfD32lik1NFjc8GePddQZ+H8ydpvDT08sJSBaIUod7ffZDjV88F6clYTN/usKwcpGdEZtbz6sA4L63E9z+cgLbcTh+bz+LNxpcfnSQ8w8JZJV7WLbFugYn5+uOJ1R0Q0//zaTLJ3AwBbd8wt0+tsW/bEtElLw9pEd+Bku2R9ixq9ExTQtVV9tlk7SMYKxb02PvJpgxSqhjStlEKioGlmFsZg9lCtux0Q3TnU6bURCbelyWROQuCnQz25qkZCFsplu6abmu7pkB9656RVPn87XrTUr1fra/V8O08MlSVsFw6n5TvbC5CnTdej4LnyQjCK57lWXZiIKILEs4jlsOY1gmzc0tJAwVzWkrn1DR0BzdLZ/w8OiC/YdNZ2L52LyeU97auqOdgPUum6SioxkaFQwsYets8m36+zkmz+q2K3C5yDUR17Jt4mrXs7lyTczNRWetXbnu1erifIl299VWPpHMPnZRPqGiYXnlEx59IN/bUAD5E2t9Xk6kOhqG5W0tBgrZ5RMWqqFhmzYkq+9VR6PVjmVtH73yCY98U4j4GuSx3ENDR/R0reTIVT5BsnzCFixakvGv1PbRK5/wGAzkTdgcHCzRfQPJnVV5ehQEx3GyBCw1fUKwSSd80vGvZLzU9DKNHiVAvuvXUuS1QFd1dCzL9IStQNi2g2W1ZaxT0ycEm+T2USVix9Ojc1S6bk738OhPCrENhTwLW9SOYZoWfm8qcp+wLDtLwFLlE271fVv5RGr76E2f8BioDAhhU9F7NWl1qNI2OsfMnj4hWB3KJ1RHx/DKJzwGEYUSNcizsGmORsJQqaIin6cd0LSfvpq7XjB7++iVT3gMBQoVX4O8r9iG7pao/fRV1dAypk+0lU+420dXwLzyCY+hzIBZsaXmXNm23Wkf5ECn/fTVlHmHhYOFRasdcSevJldg3vBCD4/cDBhhA9IlH4oycIXNccgK3ifaTZ9w+2Uzt4/e8EIPj55QSFGDAghb2IxQa1UDBZj1nGc6L5/IHF4Yz9o+7q5f1sPDo3sUMr4GBRA2Da3kMqNu+URb9rHj9Ins7aNXfe/hUVgG3IpNRUfV9X5phs+MfZmm2UX5hDe80MOjvxh4wuZo2HbhVmzdLZ9o2z563o8eHqVEoUUNCrIV1cF253UJQjcH4eegY/mEjm1ZOcsnUua1jqdfHh4lT6Hja1AgMxdTdGNastz16TuY1+oJRJt0+1Dm9AmvfMLDY+BTlBXbnPpD2RDdQliLENZbu35GN9AcLTnlo03YUoF7d3ROqnxCwBJsVEcn1m7YZa7yCWH1OqSP1iHsaERobAHHwRk5DGfUMOz9puGMr8/L/Xt4eBSOoghbtVLJ/rUzANLC1lehi9gxTNOkoSmGmay+t0S7w7hxDQ27EyOQFMLWncgPPIXv6VfxSQJBx0SxLQKGhiMIqLIfQ5aJxU2s6gq0s4/DuuwMCHid+B4epUYxRA1AUDV9t8oS1lt7LHQVQhkhgtnlEz3FMFBuugvl+bcYGXQYpsXwdzENKWFCY0U1O7ZFMK44D+PKi3p+XQ8Pj4JRCH+DXHQpbO0J662u2EW25m3r2h7fex8S/NEfGRkLM4qOjk3dYRMhmqpriT5wC05ddZ7v0MPDozfMqT+0KKu2HgtbezKF8ODjVwAAIABJREFULvV1XxD/t4zyq29hP1r6dB4Aw4IPEwrxZ+/CGTuyz+fz8PDoG2dMmF+U6/RZ2NrTF6GT31hM1Y23MkNvyuct8aG/jpZ7f4EzqfBpZg8Pj9wUwj+0M/IubJksbVzNhuiW7t3IqrVUfPl69hMKs719PywRX/KIl1Tw8OgnihVfAyjoCI5ur9Zsm8pv3VwwUQOYUWFRcck1BTu/h4fH7ilWRhRKRNj8N93F8FjfY2q7IyhBxZatyP/4b0Gv4+HhkZtBIWzdXq3takZ+8mXqpV6UhPSQicRRfnlPwa/j4eGRTTFFDQopbFqkW8cpf3uckUpxeqQkAaqr/EiPLijK9Tw8PFyK0R+aScGErbtJA98zrzPMKfxqLcUwNYry1CtFu56Hh8cgWrF1B2HtZnyORaAgrfi5qfaDuGoteEbCHh5FY1AIW6qWrcuLf7oRRdcKcQu7RXZshDWbin5dD4+hSLFFDfp7xbajkYBRvG1oCp8sIOxoLPp1PTyGIsWOr0GBhC3VddAVQkOYgF388dwBwUFoCBf9uh4eQ5FBs2LrbqmH4Nj0h2ewZdkgDVx7QA+PgcSQEzZ79Ag0sYiZgyQ6Is6IYUW/rofHUKM/RA0KIGw9aXq3R9Wh+4vfu2kJIs7ImqJf18NjqNEf8TUohLB1szAXwN5/GrFocZMHpg2GauBMGlfU63p4DEX6a8WW931gdwtzAaitwhk3iuiuzZQXyTg+rIN99EHFuViJIaxeh+h5RngUkUEjbD1FP/cEwnfeT3lvxof3gpZQOdqZc4tyrVLA84zw6C/6S9Qgz/PYwnorr217t8fPC00/lfoKm9EFltmECR8FhxF9/YHCXqgU8DwjPPqZYs5fa09J1DzcOXMqS/Uu3nV5YKOpkLjp2wW/Tn/je+9DKk+6ggkvv8YBviijza5FDSAow9hEmIOqLUY//AQVJ33Nq/fz6DX9uWLLq7B1tzA3RTQc4funfINRp36OMWNHkyhgrW5YA+2gfbBmH1K4i5QA4v+WEfzOL9kvtr3XRjgA44mzd+MWQsdehrBlRx7v0GOoMGiErSelHosWvM13j7ucK3//A46/+BRan7mLVQVaHKgmrPdX0XrPzYW5QIkgv7GYmh/+Ni9GOAA+CQ4s16m65AcI63v2oeUxtOlPUYN+2ore//O7efOJV/jLoocZN3Vi+vH42w+yQqjKazdCwoRPyocTXfiP/J20BBFWrSV0ze/yboQDsK/WQPDkr4Na/IEFHgOT/qpfS5E3YevORI94NM61p3+bEWNHcvWfru94QF0NzY/fwQdhkVgetqVhDT7yVdPy8n0gCH0/YanieUZ4lBiDZsVWrVSy/7Dpnb6g9195l28e80Wu+NVVnPjF0zs/0Yha4qufZu0ee7EmIaNbPb+XuAkfxWU2HHKwu1IbzKKG5xnhUXr0t7AVzH4v01/0jpv+wLYNW/n+XTf26Bzy4y8T+NldVIoW1ZZGjR/ETjTKsN0VWksgRCRQRuLm72AddUAeXkmJs6uZsuO+woHB3icKuovlwNKIj/iKJwp+LY+BSzH9QzujYJVj1UolPkPiorPP4Zxzz+XSW7+cFrruJhnMM+cSPXMuiefeouWR59i89GNEw8Angd+xsQEdCUsQMBGwjz4I9dwThlRnQX94RmiPLsD6fHEcvT0GHv0dX4MCrtief/45LrrwQl5c8BIHHdRRaDJXdD3JpgqbtyHsaEJoaAZJxBlei1NXjTN2VD5vf8BQNvuLzEg0FG28eliDNXvPJPHAL4tzQY8Bx5z6Q/t9K1qQt8N1P/oRK1eupLGpudNjqpVKqpXKdGVyptClvs6FM64eZ5zX0wgl4BkhlkR9t0eJ0d+iBnkWNk3TmD9vLqefcQZPPPlkj57bW6EbyqQ9I4qsLynPCCejVMfDA0pD1AzDyJ+wvbRgAWeffRYLXnqZWbNm9fl8ntB1Tdozosj96inPCE/YPNpTCvE1TdPzI2w/vvFG3l/yPi2t3Z/F1lM8oeuI5xnhUWqUwopN0/u4YrMsi/nz5nL8CSfwzDPFrW/yhM7zjPAoPUpC2PqyYnvt1Vc5+eSTWPDSyxxxxBH5vK9eMRSFrs0zorirNs8zwiMXpSBqlmVhmmbvhO3mm25i4dsLicUT+b6vvDEUhK7NM6K4wuZ5RnjkolTia9CLrOhx8+cxe84cnn/+hbzfVCEZjEKX9oyoKN41Pc8Ij84ohRWbpuvIstQzYfvZz27m+htu5JhjjinUfRWNQSF0nmdEcXAcxP8tRXnuTaQlq6GpBTQDRzcQqsph1DDMA2dgnDwbe/9p/X23/UZJCJtmEAj4C9d5MNAZKELn+9sTjL3zfsZKxfGMWCuWs/0n38Wed3hRrtffKL++F98jzxOQYLgWIyCDIoJPBMdxe5QNG6K2SKMvhFFThXrByZi7G/QwCCmF/lDHcdi8ZRvD62o8YesupSx0nmdE/pH/9RzKT/4fo6p81Atap8MX2mNYsFkKETYlEr++GnvO4J7YnGJixRj2r53Rr/egqho7dzUybuyo/nepGiiU8tb1zplTOevjTxkt92LGUw8YKp4Rwat/zYhF7zO22kYUejZc0yfBHsTRBdh04+9pOucUtG8PflOc/jJtyUTTdQRBIOD3e8LWW3IJHcDSxtVZXxeSaDjCTy++hnnnn8SYWIzEzs0EC/QbHSqeEaGrfsXod9+jHhX6MMZPkWCK2cr6fz5Bo99H4qvn5u8mS5BSiK/pmk4waRvpbUULRKGFbtGCt7n7utv48YO/So9XD009mYPq8noZwPWMWC1XEX37ofyfvIQIXXwNYz75mFGykdfzrjcDNJw8F/XH38jreUuFUoivAWzZup3qqgqG1VZ7K7ZCkfoES/3C8yl09//8bho+28lfFj2c9Xj87QdZcfo3mWG3dDsm1BUJEz4tH0705fvyc8ISJXjT/2PUmk/zLmoAk2QV8/nXaNprIvr5J+X9/P1Ntb+I9UadoOsGtm17K7b+pjdCF4/Guemia5h91rzOx6vvbCI0+4tMq7Ap6+PHVliD9YFqom89OKjHqwtLVjHsmz9luhAt6HWW6SFaX7gHhlUX9DrFphTmr0WjMZqaW5g8aRyiKHrCVip0JXTvv/Iud/zfb/nxP25h4vQ9ujxf1fnfI/TxWsYrJkoPvajjJmzSZdTD9idy10979uQBSNkp32Dqjo0FrwVs0AU2HH44iduvK+yFiswZE/p/mnJjUzOmaTF+rDur0duKlgidbV03RLfwmxt/xYa167lvySPdPl/Lw78n9vjLRH52F5V2Dz0jyspI/H5oeEaIr71HRSJSlALnOsVhx0drUNdsxJkyofAXLAL9vVJLoWkGZWXB9NeesJUo1UolsViMb57yZc4591z+9Ps7AFfowlqkW1tXzzOia/z/eIZh4aaizbSrCjcTfeo19O99sTgXLDClEF9LNb4H/W2/RG8rWqJ0xzMCeiZ04HlGtCc04zQOqLLylmzpirgJH1WMJPbyvcW5YIEphfhaPJ6gobGZiePH4PO5azVvxVaCdNczAkhXe3dX6DzPiDbEd5dTMaoaUW0s2jVDMiiCQ2x7A4wqQG1OkelvUYPkYElZSosaeMJWUvTVMwJ6LnRDGeGznUjRWPHfBa1RxB2N2ANc2EpB1AB0XSfgz44leMJWIhTCMwI8odsdwo4m/IZe9HeBTwBhZ/FWiYWiFOJrjuOgaToV5WVZj3vCVgIUyzMCyGpUDuutQ1roxHicAMUxm86kzNZpjMSKft18Uwr9obruFlSnCnNTeMLWj/SnZwS4YjeUhc4OhVARocjiFhMVqCjr+sASpxS2opqWbHz3hK00KDXPCBh6QueMHIbmUwC1qNc1bPfaA5lSEDVwJ3oE/EqHxz1h6wcGgmcEDH6hc0YPxyovA7W4wiZUlWMPcDOcUoivgZs4qKwo7/C4J2xFZqB6RsDgEzr70JlEtoexqzrvyMg3cRM0xAFf6lEK8TXDMLEsu8M2FEBuaY2gKAp+xYcoel6RhWQweUbA4BA65+gDCb/3HrWB4lyv2ZYxTp5dnIv1lm54POyccyKccy7Vh/bfuCJdd8fht08cAAibt2x3VE3DcRx8PjktcoqioChFcgjxGJQMBKETXnuPkTffxp6JpqJcb2VoOM1/vgln8viiXK+ndNfjIeZItCiVCHV1jPnqFYz/VvEnKzc1h9E1gwnjR3f4nuA4jgOgajqqqqFqGpqqoxsGgiDg9yvuP8X9XxjE42s8CkupCl3Zad+kdfMG5gS7PrYv7NIENh51JIlbf1jYC/WCvng8bPdV0mLK7H3ffdSdcGJhbzSDbdt3EQz4GZkjXpkWtvZYlpUWu0RCJaG6s99TQhfw+z2h8+gTpSB0ny77mJsu/AEPlSscIcULeq1leojWBX+FmtLIKKZIezyY0V7HGnULdgTrqPzSFexxw435vcEc2LbNlq3bGTF8GFWVPUgeSJJEWShIWcj9GHMch0RS5FRVY1ckhuM46ZVc6p8Xp/PoLv0do3vqnkdZ9OLb3PvBoyi//iub//sS44TCZKo/sUOoP/hyyYlaPj0exukNbLn7NjYH/Iz7/jX5u8kcaMn4WiDQsdQDdrNi6w6plVxC1VBVFdt2UBRfUuT8+BUFSfKEzqN3FFLobrn8J4ybOoELv39Z+rHQpT9i9KqV1MtmXq+11gnSdNI81BuuyOt5+0qhPB4222UEz72EvW69La/nzaSlJUI0GmOPSeNyfr9PwtYeNSlyCVUlkdCwbRufz5fcurorOknq4ThXD48k+RC6dSs+5acXX8t3/3gtB+Tw/Az936+pX/gOo3tou9fp9ZwQTZefT+JLZ+flfPkieNP/o/7Zlxgj5ud1tmcDVYz6yc8Zc/lXC3L+nbsakUSR0fUjcn4/r8LWHk3T0yKXUDUsy8LnkzO2r35k2RM6j97RU6H7772Ps/CZ17jxwVsIhDqv7wj+4HcMf3sRY60oUi+3Z5oFm3yVNF94Gto3LujdSQpEsTweVpmVzFqxGv/w4Xk/9+Yt26itqaK2pirn9wsqbO3RdB010baqM00LWZazYnQ+2asZ9ugduxO633z9JkaNH80lP/xKt84lP/oiyo//xMhykXpR77bAGRZsFoKE8ZH4zf+V5DTi4nk8iOhzT2ffh/+V1/PqusH2HbsYM3okoWDuD6iiClt7dN1Ix+cSCQ3DNJEkKb1t9fsVfD6vls6jd4T1Vha8+zJXnPVlvn7LVRw897Aen8P3+wfwPfxfgoJDnR4jKLs1XUqyrktP1nVFbZFGOYhZV4t64cmYF59agFfUd8TX3mNEEev21ldOYK/HnqRixoyuD+4mkWiM5uYWJk8aj9hJGrdfha09hmG6W1dVQ01o6IaBJInpRITf7xUNe3SfO+64nQfuv58FL71MVVVVn2J04rvLUZ57E/n9lTiNLaDpoBsIVRU49XWYB+2NcfJs7H33LNCryQ/By3/MHksWU1skj4dtpp/A165iyk035e2cjY3NWJbFuLGdT4IuKWFrj2mayRITd+uq6waiKGbU0ikoSu50r8fQ5rxzz2XcuHH89ne/6/SYUqijKzb94fGwqWYiR370Sd7O+dm2HZSXhRheV9vpMSUd0JJlmYpyOT0d07SsZIxOJZFQCYdbEdPdEf604HkMXVauXMn8eXO58667OP30M3Z7bK46urDeyobI1kEpdP3l8eAXHdStWwmMGdPn85mWhWlaORvfMylpYWuPLEmUl4coLw8BYFk2CVVNdkdohFtas9vAkq1gXnfE0OCuO+/knnvuZsXKVdTWdv5p3hnVSiXVSmV6csVgE7r+8njQm8N5EzZdSxbm+geRsLVHkkTKy0KUl7lCZ9t2W8FwQqWlxR21nVrRpZISntANPi668AKGjxjB+0s+yNs5B5vQ9Z/Hg4O27bO8nEvTdWRZznKkysWAFrb2iKLYaRtYQtWIRKJuG1hGU7/XBjaw+fjjj5g/bx5/+OMfOfvszxf0WgNd6PrL4yFoaZgt+fn5aJpBsJM2qkwGlbC1RxAEQsFAVq1LZhtYpLEZx2nXBuZXkDyhGxD85Z57uP3221n8/hJGjMhdgV5IBprQ9ZfHQ0LyM7yq7z2yjuOg6zpVlV37RQxqYctFMBggmCF06TawhEpTUzjdBpZZS+e1gZUeX/zCJVRUVrJs+fL+vpU0pS50/eXxoNsQGN33+Fq68b2L+BoMQWFrTyDgJxDwU1PtfqK4o5rcguHmcGtbG5hfwa+4KzqvDaz/WLtmDfPnz+OXv7qF8847r79vZ7eUmtD1l8eDUlODf3THYZA9RdeMnI5UuRjywtaeQLI+rjrZgqbpOomEhqpqtLS2dmgDC/gVZK8NrCgsXbqUiy68kLcWvs3oPLxRik1/C11/eTwYiHnJiGq63i1RA0/YusSvuIkGqlxXnlQbWEJVibRGaTJNZEnKKDHxd5mx8egdW7ZsZuWqVf19G3mjP4Su2B4PLY7CiHPPz8u5NE2nuqp77lgl3XkwEEi3gSWb+w3DQMoUOs87wqOXFELoiu3xsL5iPNOeeIbyadP6dB7DMNm2fSejR42grKzrGe6esOUZ0zTTIte+DSyVkPDawDx6Q6bQpb7uDcXyeGjQBIzjzmKfh/7Z53NFY3GamsLsMXFst5J5nrAVmKw2MFVD03REUUgnIrw2MI/e0huhK6bHw0qzksNWfYwyrO/m0E1NYXTDYMK47sVWvWBQgelVG5jf35fx8x5DhN3F6FJfZ1JMj4f1TiVTfnlLXkQN3MRBsJPZa7nwVmz9TLoNLJGcS5fhBhbIaOz32sA8ekqm0N1w2Q+onzKmKB4Pm6ig7LxLmPr7P+blfClHqpHDh1GZw5EqF56wlRiO46THNKWGcDoOXhuYR69YsmQJ8+fN5R8PPcRhxx4JwNLG1YArfPn2eNgsVlH3vWsZe9XVeTkfuN1CuxqamDBudLcTcZ6wlTgOoKbbwNzsa1sbmD+dlPCEzqM9t976R/718MMseOllyso6tiGltqofXHoR1W8tZIzZN4+HHYFhVH/1W0z60XV9ue0OhFtaicXi7DExtyNVe0zL8oRtIOKu5Nqa+23bRvH5suJ0XhvY0ObzZ5/N5MmTueXXv+7W8Z/97T5WfftbjCyTGCmqPfJ42CZVEMHP3n/7G8PmH9eHu87Nzp2NSLLI6FHd6weOxuKesA0GVE1PG1knVBXLstvawJJj1b02sKHB8uXLmT9vLn+9915OOaXnvgtrbryRrff8Gb9gU6W2dOrxELMlWpRy5JH1jL7i64y74usFeDUuXTlStaehsdkTtsGIa3uopbOvmW1gqVo6rw1s8NHe46EvNL3+OrsefYSW/y1E27kLS1WxNA1/TQ3BceOoPOJIRpx7HlUHFdaFS9d1tu9oYOzokd3Oim7Zut0r9xiMpLaj1VltYO62taU1immayLKU5e/qtYENbFIeD4veW5yX89XOnk3t7Nl5OVdf0DTXpb67PaLghmq8v+YhgKL4UBQfVZWu0GW2gUWiMZqaW7LbwPwKimd7OCDoicfDQETTdQJ+f7fLnVLlUp6wDUF8Phmfr5zKCrcmyDDNdHdELBanubmlXRuY3+t3LUH66vEwENA1nfLyrgdLplA9YfNI4ZNlfBUyFRVJNzDTSsfn4nGV5nCr2waW4e/qtYH1L4XweCg1TNPCtCwC3RgFnkJVNTeGXMD78igAtuMgCgKGYSJJYkHq12RZoqK8LG17aFlWlklOqg0stZrzhK54FNPjob/RkxNzgz2Ir6mqRigU9IRtoGCYFppmoGkGO3e1YDsOkyaMIBQsvKW3JEkd3cAy/V3TQufHH2gb1+SRX/rb46HYaJqOT5a7ncE3DAPTslC8FVvpY5gWO3e1Eo25I5Ai0baxzj1ZoucTURQpKwum52K5QqcSTxYNhzO3rsk4nTeqqW+UosdDoenJxFyAhOqu8PyKzxO2UkfXTaLRBI3N0azHfT6ZxsYIFRVBAv7+Dey7QheirCx7gkkikSl0YsY4dS8Z0V0GksdDPnEdqYx0Jr87qKqGLMtIkuQJW6lTFvIzamQ1tuPQGklgWa51mmGYfLpuOwABv4/KiiAVFUFqqspQlP79tbY3sm4TOrWD0HlZ184Z6B4PfUFLOb73JL6maelYrydsA4CK8iD1I8G2HVpa3eGAI4dXYZgWrZEEqmagagY7G1qZMK6OMfWllfrvKHRW2vIwnkhlXT2ha89g83joCZqupxNU3cG2bTRNT5ulyy2tkfTcL4/SRBQFqqpCSKLA6piKadlMHD8cSXIzorG4RmskQWskQVVlqJ/vtmvaJyMsy0onI9rKS8SsrOtQFLre9HoOFnTd6HE2FEjHcoX1G7c4hmEiiWLaYzOY/N8bblh6aLpBc3OUUSNr+vtWCkam0CUSKlrSNyItdAGvM2Kws2XrdqqrKhhWW92t4xubwoRbWhk7ph4AQdV0x7IsNN1A03R0TU87LqcELiV23iic0sBxnCH1oWNaVnpEUyLhZoclUcQf8HstYIMQwzDYtn0Xo+tHpLeWXbF12w5s22HEcHcUuQzu1iAUlAglu+cdx0FLCpzbOB3Btt3hhsGAn2AwQDAQ8Ebh9BNDSdTA9Y3ILBhOdUYkElq6BUySxKzyEp8ndAOWdOO7vydbUT3dOQOdJA9SNvKZGQldN9B0HU3TiTY0YVl2UugCBIOu2Mneis6jCLTvjPCEbnCh6TqK4kvHkLs8XtOxbTurKLzbWdHUhIjUH5NuuFtXTXUnRKROHAz602LnbV09ikFHoTPTMbpYNCV0UlbW1RvTVLroup7ePXaH9okD6EO5h+LzofgyhE430DQNVdNpjSSFzq+0regCgW4rsIdHX5BlmYqspv42oYtG41ljmjyhKy0sy8YwTAI1Peg40DQUxYcotoVo8vbbTK/okoXCum6gaq5BcGvEjdEF/Eo6PhcM+j0DEo+i0F7ojAyhy5xHl1le4gld/5BqfO9ZfE3D3+74gv32UkJHUug0XUdTdVRVI9wSwXGcdLbVFTtP6DyKQ2pMU2VK6LIGb0ZpajbbhC6ZefV5o9SLgqbrSJLU7bpF07QwDJPKiuzWq6L9tvxKauKDO9xQ0/T0bP4soQsGCCX/H2rZP4/+ocPgzUyhi0RpakqOUk+u6AKeZ0TB0LSeNb6raYPxbCHst99Oqv6oMkPoVC3VNN2C49C2mkuu6Dyh8ygG3Re6tqyrJ3T5QdeNdNy+O6ia5ja9t/v5l8xvo/2wQlXT0FSdeFylqbkFIC1wwWCgR1kTD4++kFPoEqobo2uN0mS2CZ3nAtZ7NF13d249aO9MqFrOdtCS/ekH/P50ADFdMKzpxOIJmppbEAQhKz7XXWsuD4++kha6SlfodMNIJyPaXMDkrKyrV8zeNXoPJ3o4joOqalRXV3b4XskKWyaZBcNVVKSFTtU0orE4jU1hV+gyRK4nDbQeHn0hVfpU1anQhZFlOb2a84QuN5pu9KhHPR1fyzHEdEAIW3vad0Y4jpPeukajrtCJKaFL1tD1JCDp4dEXOghdytc14bYnZgudP7l19YRO07LborpC1XQEgYG1Fe0J7rbUrY+DttlMWrJYuKExjCiKGckIf4/qZDw81m7YyOSJE3r13Pa+rtlC14ppWvhkOekX4XdHWw+xGJ1pmliWRbAH78uEqnU6cn5Q/vREUUxnU6FN6FRNozUSpaGxOX1MqrTEm0fn0Rl/vv9BPli+glt/8dMOhaC9IafQJaeXtIRbMS0Ln0/OKi8Z7O2Jmt5zx3dV1Tqd/jEoha09uYROVd2uiHBrlF2NzUiSmOyIcONzntB5ALz1ziK279hJZUUFn23fwaQJ4/N+jbTQVblCZxgmsXiChOqOUbeSQpcaCOsP+JEGWTG7run4fHK3t+S6bmBZVqfv0yEhbO0RRZFQKEgoqfaWZaf7XMMtrexqcCvPU/G5UDAwJCe4DnV27NrFE8+9wNmnnMQjTz1DQ1NzQYStPT6fTHVVBdVJoUsVsicSKs3NLVi2O1knZYzj9ysDvmunp45Uqtax8T2TISls7ZGk9kJnoWo6mqYlha4JWZayGvo9oRv8PPToE0zdYw8OP+Qg3npnEY1NTenvfbp2PYZpMmOvPQt+H6kaz5TQqZqeNsZpbApj2zaKkiwtCbhiN5CK2XvrSOWT5U4Ha3jClgNJkigLBdP7d9Oy0FRX6JqaWzHNpNBlNPR7E1wHFy+88jrrN23mpmuvBqBuWC27GtuEbeOWLSxctJgff/+q9GNbt21nTP2obp0/Hk+wq7GRMfWjepwoCCTr42qS9VuqqhFPxugiDc04jpMVn/P7lZIWupQjVU9KtBKqhrKbcJEnbN1AliTkDINg07TSW9em5jDmLjerlRq4GQwEvOkQA5it27bz+H+f44hZB9PUHKaivJya6mo2bNqcPqa6qhLbstJff/TpGu687wG+cvEF7Dtj+m7Pf/f9/2DZylUMH1bL9p27+NxRR3Demaf1+n7bD4VNJSLiCZXW1oh7TNIrIrV9LSU0XU+7lHUHy7LRdYPyss5LQ+RIJJber3t0D1mWkOU2g2DTNJNbV53GprCbvvfJWdOFvekQA4d/P/E0M/eeTlNzmD/ceU9S2KqIRNtMq+tqa4nG4umvn3/5VQ7ab2aXorbgtTdYsvxDfvKD7zFq5Ag2bdnKw48/xW1338uVX/1S+riF776HYZrMOfLwHt9/KlFWW1OF4zjp+FwiodLSEkEQBHdFpyjJxIXSr7MSdU0nEOi+/qTia+0b3zORNd2dl+b3+6kbNnidjwqJLMuUy3LaTs4wzfTWtaExnMxq+QhlTBceanVKA4XnXnqVnQ0N3PB/3yUUdFfoazdsZMWqj3jpjbfSxw2rrUHXdUzT5PWF7xCJxvj25V/u8vybt37GxPHjGDVyBADjx47h/DNP4xd/uJ3WSJTKinJWf/IpC15qSX74AAAgAElEQVR7kwnjxrB2/UZqqiuRJInTTzy+x69HEARCGb3Vtu2k3b9UTScSiWI7DrIsp7OzKcEr1vZV0410/LA7qKqGKIq7Hfcupyp9/V4wPG/4ZBlfuUx5eVLoDDO9dY02NmNZVrZfhGeMUzJs2rKV4z43Oy1qAJMnTqCivIwXXn2dltYIVZUVVJSXU1VVyYrVH/PKWws5+9STurXqmXXg/tzxl7+x6P0PmHXQAYCbHJh95OGAA8D0qXvyk2u+h6brvPXOIpqaw70StVyIopAVP4a2EWKppEQ43AokOygUX3pVV4iEmW4Y2LbdYw/RXG1Umcjg2l31ZFSIR89wm6ZlystTgw2N9NY12hBrM8YJBgh5fhH9ytcuvTjn4yPq6vD5ZBqamtLZO9M0efmNt9hjwgQOnLlvt86/z/RpnDj3c/zz8SdZ9ckazjvjVEYOH84FZ52ePucTz77A1m3bqa6s5PBZBzH3mKPy8+I6oW2EmIvboujuONRkm6JuuIMn2gtdX0MsPW18BzdxkBpA0BnStT/84U8ikVi3jUl3h2lZA76ephhIkoRfUQiFglRWlBMMBRAFEV3XaWmN0tTcQiyWQDcMHMdBkqSsee4e/YNrGFNObbX7Xlm2YhVbPtvGVd+4vEehhWl7TmHs6Hr+995iXnrjTaZMmkh1VRUAt99zH5FohCNmHYLjOPzj0cepHzmC+uTWNYWuGwX78BMEAZ8sEwj4KS8PJWvqKgklx/kbpkUsFqe1NUokGkPVNEzTwnEcRFHokQZEonFEQcg5oSMXqqanV827+5kLuxqbnXg8wcgRdd2+mVw0NbcQjycQBPDJbjJCUXz4FF+ntnzNzRmfAn7Fs+9LkmmMk7YWyzTGCQYGXeX5QGTpipWEgkGmTt4j/dhzL71KPJHg7FNP6nD8rX/+K6efdDwTx40F3JXRA/96lA9XfcRvb7ohfZxl2elt7X0P/QtV0/j6ZV8A4D/PPMfylauxLIuJE8Zx6nHzGDF89+/dDz5cyadr16H4fEydMjlvtXepWHLK20RN/q3KspRe0bnbWaXTD+bPtu2kLBRkxPDabl0z3BJhV0MT48bW7zYGKBuG2Wn1bk9wHIeyshB+v4Jpmm5cKaqj60anYhdPqASDfqKxOHqGyGVmbEq5/qZQdDTG0dMi19oawXY8Y5xSYP999u7wWDyRIJ5I5Dx+82ef8cmatWlhEwSBI2cdwuKly2lqDlNbU81jTz/Lpi1bsSyLSRPGE25pTQ+4fOLZ53nx1de5/AsXMmrEcF55YyF//PNf+MX113Z6j3+48x7WrN/AkYceQmskwrInVzNuTD1fuuj8Pr/+9rFkaDNxUjUdNaGl43U+n4yiKPgztrGWZWGaZo/7Q7ujC3K+4muGYVBeXoYkiUhS9jRcy7Jzih0I6ZIJ9zjXmEHXDeLJrZjP58OfFLtgMDAk38DuH4LSZoyTCvZ2aowT8Lau/USulVqK8884jceffZ6A38+kieMZNXwEi5cuQ5Ykamuquf/hR9i0ZSvnnXkafr+fjZs2s+C1Nzj/rNOJRmM8//JrXHLu2Ry030wALjznLK667se898FSDjlg/w7X+88zz/LZ9h389Nqrqat1V0S7Ghq54Ze/YdKE8XzuqCPy/vpTH8qpJoK22YluzC61iAHSW8lgT0o9VK1bQpiXFZvjOBiG2WlRamdiZ9tWu+Mk1x0o48YNw8QwDOIJFdtxvCQHmWPUM41xtCxjnPbThYfiyrfUOPiA/ZBkmZdee4OX31xIQ2MT1VWVXHbReQCs27CRmXvPSG9tfbJEdVUlUyZN5JN16xAEgUMPOjB9PkkUGVNfz86GxpzXe/f9pcyfc3Ra1ACG1w3j4P33Y+36DQURtvZkz0501c62bXdFp2qYhrnbso1MTNPEME0q/V2XhsiCIPS51EDXDeQeVtq7Ytf16iuVUWxubvGKXDuhfVYrNaIpnsjtF+EZ4/QfB+y7NwfsuzeRaIx4Is7I4cPT35u25xQ+WL6C2ppqAn4/b737HrZtM3Z0PRs3b0kGzLPfq83NYcqCHUf3rF2/AUFwxbQ95515Kpu2bM16TEv6eXZVRpEPRFHMqq3rLondTMxtj5yPjgNN1wsuOqlqfo+u6WCMkxzRlPKLANKGOJ5fRP/gZlizdx8XnH0GL73+FktXrCTod7tV6keOBGDS+HGEW1r5bPsORo9yH3t70WLCra3slyPWt2bDRkRRTGdwV6z+GMexGV0/imE1New9bS8Alq9azYP/foyysjISiQRzjjyCE+bOKeAr7z2qqiEIAvF4gkBA2e1OU85H0Z2uGwUVHdu2EcCr7eoluf0i9Gy/iKTApUyCvaxr/zBv9lHMm+3WrTU2N9PQ4Dbej64fxTGHH8qd9z3A3KOPJBKN8cqbCznluHnUVFd1OE+4pYWK8rZar3UbNvLh6o+IxeLUDavlnNNPQdM07r7/H5w0/1iOnHUwGzdv5e//fgxF8XHs0UcC8PrCd5g4fiwTxo0lGovttj+z0FSUl7nCllAJt7QiiiKBgD/d/5qpQXI+lp66phMKFe5T3zStHm91AaLReJsjvQfQMeaRWYwZjcVpam7BcRwUxec6hQXaZn55FJdhNTUMq2lrc7zw82fy2sL/8dGna7BtmwvOPoNZB3ZMGoDby7ro/aXpr0878ThOO/E4Fr77Hs+99Crjxozmnr8/xJRJEzlp3rEAzNy7kjlHHsab/3s3LWwLF73Hmg0b2LFzF7F4nD33mMTnTzu5XwQus9nfsix3oklCIxaN09zckmWB2OcVm2VZODgFXU31ZhvqOA5NzWFkWXLHuCgKgeSKxOvTbCO9WstI2Oi6gabr6LqeHNNkIopCUuDaxM5rAys+c448vFuN8fvOmMbTLyxgyfIPs7oi1qzfwOjkaKVP1qzjlOPnZT2vtqaGWNxt7o/FE2zfsZN9pu3FuaefwrYdO7nngYeora7mtBOPA9zylg+WryAQCDB54gSqq7pXaAuw6uNP2GvPKb3aHUiSlLWdT3m9xhMqLa0RN3nQFzTdwCcXdkW0uxHAnaFpOn5FobqmEsuy0nPlw+FWJElAUdw3cyDg1YC1p22V6/7RuGNi9LQJSUtrBNu20+OqU0LnOYGVDiPq6jj1+Pn89cF/svyA1UzZYxKJRIIPPlzJSfM+B7ii1H7Htm3HTqoqXXFau34DumFw/Nw5+BWFivJyxo8dTbjVrU3733vv88/HnmDUyBEEAn5efPV1vnj+OekY4O7QdZ277vs7X7nkQmbuvfuJKN2hvddrn5cuuq4j+wr7yW2aZlYRYHdQNS29fXXHfEukkkepWrloNEZjU9htH0k6V3lvzo5IUrZnBLh1i5puuG1gLVF2Gc1AcruQIXZewqf/mHvMUewxYTyLlixlybIPMQyD+bOP5rjPzQbc5v416zdw2MFuCUkiobJ46TJmH3EY4K7uJk0YnyV+Tc0t7DtjOo1NzTz4yH8457RTmHOUu4J86LEneOzpZ/n25ZcBsGjJUj5ZsxYEgelT9+Sg/bJXjrphMHnSxIK89r4Lm2YQLEB8LR5PEI8lkH2+pD1Zz1aFmqanR323J1VCAu73dd1A1w3CLa0YDWZy2+q+Qb34XG58Pp9bf5QssLZtJ72q03SdSDSKZdnIybpEv19Ji55XPFw8Jk0Y36lPw1mnnMgf7rwHXdepG1bL4qXLqa6q4vhj5wDuim3KpDbLwe07d9IUDjNl0kSWLP+QmuqqtKgBzJwxnRdefQ2AN99ZxEOPPs6px89DURQe/s8TrNuwkXNOPyV57o2MGzO6U5epvtJnYdN0ncqq3Xfa9wbDMKmurkIUBXTD6NEgvFTmr7uNtZkJhtT8dcNwV3RuIF1JZwy9+FxuRFHoMMnVNM30qi5lZA0ks1htQud9ePQPE8eP4yfXXM3bixbT1NzMnCMO59hj3KSBYZo0hcPMn3hM+vg16zYgSxJjR9fz4quvd/BZ3Wf6Xuwz3S0jOfqwWew7fVo65lZXW8sD/340LWxr1m9gyqSJWc93s/VqeivcF/r0LnUnDIgFKfbUdYPaGtc4tqd1Vqn4Wm9ITxf1K5SXl6XjS+n4nCig+L34XHeQZRlZltOfyg5uBl3XdTTdIJacNpxK27eJ3eD30SwVaqqrOPm4uR0ej8cT1A2rZc/Jk9KPrd2wMS1GqV7vzli8dDnvvv8Bpmnw/9t78yhJrvrO93Njy4zMWruW7pZaW0utHSEJEGADQiCZxTYGjMfLG4z9gGFs7PF2vMzMe+c9z5zxez5vbI99bGNmbDxgjAXD2GYxIxtsbCwhhFiEEKCWutXaulvdXVWZtWVm3Hsj7vvjRmQtXV2VkZVZmVXK7zl1qro6MjMyK/Mbv+X7+/4uufgihoeG8FxLN8YYjp94kle+/DYAnnrmWf7kz+/GGIMxhuuvuZof+8E3b+t5bZvY/C4ole2bXbQdHa2ur20XK/Wl7NzS+lyqAfPSXQeD+tzWEKyIh7OhmDiOm1FdrdagUl2wUbLvU0w3o2dkN8DOYXRkmF/66fes+V290WgS3a0338Tv/7c/5YmnnubwZZfyzMlTfPyTf8Pb/8UPcvrMWT76V5/ke+54FZceupiz52b43Bfu5cC0nbI4fuIpdBxz5RWXU52f5w8/8CFuuv5a3nDna6g36nzgzz/KB/787m0N6m/r028nDjp/ZVVKbWt+dbP62naRRSEZlFqpz8lzqmkvVCwOUqxW4LoupdBdM14jU6KLVtU9m/q7QtBsTgzKAjuLf/0Tb2/+fOO11/A9d9zOx/76UywtL+MIh2uvvorJiX3c9+UHCQKfu15t09hrrrqSf/7Sl5vR3rETT7J/aorx0VE+9befpVgI+N9+6K3pPY/x/a+/i/f/9w/3jtikVGTW4p2EVppCm9FP3vradpEV0cvllfqclIrFpWWmpyYGXcE2kNU8s8ptkiTNqK7RiJhfWEp9v7w1UpNin6+Z22t4/WtfzVcfepjX33kHN11/XdNZ+JqrruLvPv8F/ubv/p7LLjnEsRMnePrZk0178+NPrjQlHn/iBNceuWrN/Wai5O1MOrT9qUsSa0XUjQ+uVIqRHMtTV2M79bXtIqvPeZ5LFMlcr42I5zHu+aMxA9ih6fUiYivZsVHdwuISM7Op3CSt02VC4sG+1+6hFIa84c47ePhb3+GVL7ut+ftrj1zJj//w2/jn+x/g4W9/h4P7p/E9j8OX2+7ssRNP8kNvsk2EKJLnRd7PnDyF4ziUS/kkXqvRNit1az40SZJ0s3V7b8hO1tfahZQql6BY6Dm85QchaYC/j8SdIPEmMN4+EIMP5kbIJDvZBd0Yk05LKGQkWVyqEcextcFa1ZQYNHw6h//xiU/z5DPP8r13vea8/3vpi27hpemymjhJuPG6awiLRc6em8EkppmWXn3lYR5/4ok1t/38vV/ktltv3lb0LRqRNO3ccGFhCak6n4o2GhFSKqYmW7MKXo8zZ2colcKe1rcWFpYIi8WWRcVO4xhuUkWUrgJdxegqqHnQFXDLGM+SnfH2YdydSbFbgbf4BYyXkfBE35Gw1nEzqss0ds052ExIvM4JZYDuo9FoUCzamqpUit/6g/fjug5HDh/m6LHjzC8s8H/80s9tK2Jrm9jOzcw13yCdxOLiMoHvb7mFZiMYY3jm2dPs37+9/Q3bxczMHNPTky1bOblLX8YtjEPh4vP/U8+DrpKoeYSugNFric7bB2LnI1QRz+MtfQkK+y0JqznwRki8qSbZ4fSfHVKT6CL73c7BOqtSWPt9sH9jZ/FP993P6bPnGBsZ5vWvvWPb97etVHS1rXenYC3G27vfXtbXMmgdN7f8tAoRV8C7YuP/9EbBG13hiKSB0FWEqkLjNKgKeKProrrOC6bPO2c1A/4+ROnq9DcGVAVXVTDyCdzlr4ATYvwJEncK409gnN67Hzdt1ofWzsFGUjXtcJLErJqDXUlhB+gebm9j4/1maIvYtNbpWrjO1ioyi/F2yakf6mtK5auvkTQQSQRuix96pwjBAURwYOV3GdHpk4j6I0CyKkVMozo6+7cSegZRWF0uEODvs2TXPK95hKqAfhZRfxiEm56Xjer6Ia3edA42klTnF1HK7uiwljiDOdjdgLb+MlKqrnSbMlJot2jYTf1aq1BS5ToHJ66AP771gZvBGwNvbIW6kjpCVRG6CrVnQVdICpcTl1+0vcdZBaFnoXzV5gdl0Wb273jJEp06i2g8CiZOI7pJjDeJ8bb5OnQIF5qDjdKv5hys567zrBvMwfYL2iK2qI0dB61AyvajtZ3Wr10IkVSMj7e+fFpoW5vqKJwQCiGicBAAU3sMYzqXSol4yV583JwXEXcI3CGc4iX233HdPn81j1g+AUkd/AlidxLjT9qGBL0nik3nYCPJwmKNmdnVc7ArZDcQafcGbUZsrUdGxhhmZiqpvssjCLwLKsaVUpR2oX4tQzb3mMeAUeg5RLix+0LHoJcgmN76uBYh9Ax47XWt18ANwb0YJ2uaJBL0HK6qQO0k6AUrf/Em07R6sieNko1w3hxsU5ydzcHW0DrGdRwKa+ZgCx0v4QxwPtpORUdHWyMgpTS+51EqhTTqDRbmGyQmIQjOJzqldNut936or+XVrwG20+nd1KUzSqEXMKXOiX+FPofwW49KW4YTrK0fmhjUHI6u4DQeTTuvYyTeZN91XlebJ5w3B5su0mnOwWa266s6sQN0FrmZQEqJ57ot18GU0gQFn3IpbF7ddBwTNSSNRoP5+QZmFdG1K57si/qaUrm0NyKetx9mp4vpilFgVEc7kkLNQemyrQ/c9gO5EEwhgpUVdai5tZ1Xt5SSnCW7fui8ZthqDray0RxsulRnsExne8hNbJFU+DnqBjrdEL/mQV0XrxxSLq8lusQkeU8H6J/6mpSKffvyTBxUoNsFc72IcUcR6izGGwWxvVqbSGoIlK2X9QIX6ryqZxG1h0F4a4muDzqvq7HxHKxERor6qjlY3/cJV83BDqK6fMhPbJHMVUOSLWyaz4iuXURSIoRgfn4R3/cIAn/HnR+01riuk0vYKfQswu/yB88pIPwRvMZ3rNhXuDadc8cw7hjGHc2lexN6BvyJLp5wTmzZeU1WdV4n+qbzmsHOwRYJi6ujusyJeCWqWy0iHtTqtkbuT79SijBs7aofx1as2u1tRsVCgYsv2k8jkraOl171giBoEl23jQulzG+1JHQFwou6dEYp3DKifO3Kv5M66EVcvUAin0LE88SFIyTFLaQbKYSaQXhdqK91Cus7r0k9JboqYvmJdB53gjiL6Pqk87oamYg4u9ysiIjXedalkz9hGtUNOrAryEVsSZKg47iprt+KLLbTDMgLx3EopdvNIUtvI+qNBsvLdRwBfpPogo7rjZQ8P+XeFEYh4kUbcewknBCCEIJpHMBU70sFvK1B6FkIX7D1gf2CVPriFNILSCJBV1Z1XufTzuvUqpnX/ui8ZthIRNxckRhJZmvWidh1nZVpiWKBsFjk+erilOsv6DgOYyMjNKKI5eUaSWKdTj3fxfc9PM9fQxha6Z5dRWx6W2qOfSmlaDQk9YaN6DzfI0hJrhPnKHNOHAhdgW50FvPAaNBLrRNbEiGSeud1dzsJJ4BgPyJIV8SZGHQFR2Wd19m087p65rX/xqmaezqao2ExUTr/mrk7N3fGphf859NYmAc07V1awfBwuenoke3rzEJkKRfxPAfft55kcoPGQa+Qqcmzc7eLIyJqtTqVyny646DUVm1OKY3rernSXSvM7bH/mq7mitYcbedD9xSEC/4kwl9lnKAquDrrvD64qvOajoI5nZ+R3i5c16VUCpvKAGMMjUgSNSIW0zWTWVaTEd1eTl295eUaleqCHdz2PQoFm98XAn9L6cXKvs7z29mNSAL0bTcn0xyNjgxjjOHU6bNtj3LZUbB8bxIRzyEKWy+W7SpUFZOjEWD1a/1VfO8K/HHwxxFZP0svpHW6ZxC1b6Qzr5Np53US47YnKu8mmtFaGqUlSUKjEdGIJNX5Bc7NzOF5HqWw0Exz8xg39Du8RiQpl0MKhQJaa5TSNBrZ4K9DEPgp2fkUgq3nOJvt7D6J1FqB1hqg7QaDlIrhnM9X6AqUr2nr8ToFo6uYwpGWjxd6DorXbn3gXoM3At4IDql2L15Oh/vPIhpHrZVU5mLiTWL6sLniOM6aiE7rmCiKaEQRM7NV4jgmCHwbzRUt0e3mrqsnpWR4eAjXdXDdtaZ7WsdNsqvV6iil8DyfsdHh3Cvx+hmNSG4rspRS5drRIOIl24fLO2vZaagKSbnF1NIoRLxgB+6f73DL4JZxOGT/nTRWOq+1ExDX0pnX1K7J660/4EbwPBfPW1eDjuxOicXFZZIkoVgoEIaFZvq6m/ZJeDpOLmi/Yp/82ihmdra653Y+buS73iqUshbpeZTi1n+txymdXsA4YcuCXaFnOzMfuhfhFKFwECc1HcCo1JtuDrP8NHr0rt6eXwto1qCHVmrQUSSpNyIq1QWAJsGFYXHN/ol+hFfIMV9pjE3b9lrR0Y5jtReBSplf0iL0XPeFuVshb+NAzXRnPnQvQvgQTCPiGkkbFwOhzwJBT1ParAY9wlBzsqcRRSwt1ZqNCNuEsDW6XhtQrIeXZ3B8L5KaUgoB1GqNdEGIn6u2IKViNKeNudBzkKO21Q0YNY/xWm9eCD2ztf/aAGtgdBXjHcp9O7d+FGEaaUq7z9o4NTV2O58tNWdZiwUYTRsRace1Or/IuZkKnueuqc/12oTT83MYRiqlyXP8boDv+0xMjDevSIuLy7iOwA+sZMX3/U0nJ3I75mIQukJSfxZHL4I/2pu6lZ7DFK9r8eDEpqL+S7p6SnsOag4TvjD3zUS8jBi5BdximtJWofHt1N1kdN3Q/87XadeL4eM4bnZcZytV9LmYqclxxkZ7l5V4eZg11npPivxWh92QWkM3dW7WfcTWILxmVAcrKwjzOZII9OhdNmrTsxCdQuh58MYw3hiOP2KJzu2iVipp2E5eiwPi2X6Dfhs96mvESxjc3G4jImkACrxUQhJMI1Z76amKdUaWTyFqXwfh93zo33VdyqkYvhFFnD072/PU1MvT6ZBKt73IeDchK6QOrVN1ZzUGlU5UeJ5d+JEXxh3GuMMkhcz6J7F1N12BaAaWH0egbYPBG7Gzmf5o59bbqSqJm1eY+zzQr3USqpLOoebDliaeqcauGahlQ//6HKLxGCSRlZ70aBa20Yia9bdeouVwba82DlrBRqpuO76yPZnICpxU/zRJgq29iaSO0BVEXEHUn0QsVsEprI3q2pxcsLWf1iUIQs8gwh3wX9tDMKqK8ae2PnAdhM7ZpMmG/smG/hvpvotsFrYK3r7mHGziT2zbumozNBoR5TYacVrHzM5VmrW87UZ8LRPb85XUNsKaYmqXYJwQE4TAivuHiNPdomoW6idTXdk4+GlU5422lsKqKia8pOVzEWoWRm5p41k8j6HnMG2ImYWeheL17T+uU4TCAURhlQuxrqbmnMftiFhzLWKWvnbGW0+nI5bjbdTWlms1FhaXqdUjawHmOKuG+e33PNlly8S2FxsHuw3WO22UpHB5+gudRnVzONFZWD6KILFRnTe60phY7VZhEtCtp0lWvzbSk27crkVST2uYOSNqIzvv+CJc65/nT6wz56yCPoWofwswafp6YOW91QYajQigLSfrWq1BoRCwf3oytVSXRJFqykuANSS31VLrloltrzYOdjWEh/GnMP4UmfewSGoIPYfRFcTyE4i4Ck4J44/heCPgDlmzRdFaw0MM6mv5oSrWFSQnHLVDJgNNc85sRKxmL5BLD2H8/W13WhuNKF3alP8iuFyrM5LKpqylekgpXFX6SS2aGg3ZdBkOfH9NVLc6o2yZ2J4vjYPdDuOUMEEJghX9VFarsyns0xj/wCb3sBaOOocIL+7Gqe5ZGJWvhplB6FlELyZS3JL9ipdx699El29r624ajUZbEo9arY4x5oLTDEKIdPnNyv9LZZfkRFIyV5lPHazdJsm1RGzP58bBXoDxxjHeOEnhcO7bWnulXWQs2Q/QFUzpitw3syLo3gm3RelqqNyLI0+RBPmcnRtRRJKYNYtrWkWt3sB13VwO1IHvE/g+Q6z3o5MsLC61RmwDUnt+QuiKHdTv5hatvYZEQrycX+qR1kt7nfaL8tW4yw/nJ7ZtyDyWa/UcZa4Ed/mhppQla3ysVy60RGyDxsHzE4PB9zaQozGzGkL3iQg6mMbIs7i1R4hLN7Z8MyvzyF+bU0pb26/h1jqzQp3DSRYwWiIa3wYTr1vWY9+v3sxMpSk2vdCW9kHj4PkJoc8hCp3bIP98gFEVkjbqa46e7b1VfAqndART+QJJcFFLRgnbkXnU6nWAlt1C7Os0jlNKU/akbju8qoqoPQXxIngTePunJ5qq+oWFBnGcrCE63/fTxkGP9kgO0DM4ehaGemuGueugq5hi/sF3oWYQpcs7fz7twCkgytfg1b+JGr59y8M7IfNodSxR6HWvU3NZT2YZpUFV8DzPRmmZ4dxG40N21Vd/2ZIM0F2IeMHq35y9YyjadZjEjlIN5U1FM5OBW7tyWm2heClEZ3Eax0mKV256aKdkHq1AqFnwNhGLCw+CqfNrbOuLcEmSIKXKfcLPV5w8dabZci4Ugl1ryin24uKWbkNXbOqWU8ws0s1YfSeCFqKlC1u3ZB7nnU4OsfiWzQMnHW0YoDUkSYLjCJaWa8xVqriuQxDsPqIT6hyiMCC2PDCq0p5+zUQYo2HuHzD+FI4/ZrujHRp1ahtqjmQLTdtOyjxEWl9rBXtnLU0fQEqFl0a8GZTSKKV2HdEJPQflzVOQAdZBVTGF/GacSXCIJDiESJYR6ixEz0HtBAKDCSZw/H12LGon95vqqrVc2mJgfudkHunFNmxNhjIgtg4iiiTBujV8mYdbht1AdHbZjOmuJ8Ja0kYAACAASURBVNxehJ4jyV1fW4FxypjCFSQFK+4V8SJCn4PoDGLpO+CVEaMv69TZbg4115I7yU7JPAAcPQfeDS0dOyC2DqIRRVsKmXcD0dmQf5CG5oKuYpyhjloCrfj2HcaRT+Oqkx277y0fW1UwweaTKtuSedTyyTzszHNgv1rAgNg6CBlJhobyRTn9SHR2MXJ/aKp2DVQl1/LpvBC6gvB20B23lfraNmQey/WcMg+V72I7ILYOwS6YFjltws9HPxCd0LNQurTj97uXYVQVE3TvNRO6Am3U79pCjvraapnHRz72cQCOXHUlV195JaObRHK1vDIPPZOrmTUgtg7B1tc6r/XbaaITSR1hVO87crsNeg5T6p4Zp4irnfVp2wwt19fWyjymJid4/NgTfOZvP8tfNj7FoYsu4shVV3Lkqiu54rIV0s8r84D0YptjS9qA2DqExjaWLudBt4luoF9rA/ESRgQYpzvNFhHPW4X9DuncWqmvbSTzuOs1d3DXa+5gYWGRx44f5/Fjx/nK177OF+77IgcP7Oe9/+pdQBsyj3jRTtC6rae8A2LrELazdHk7aIfo3NojJP4kxt/P+qFroWaszfgArUNVci2fzguhKzu7orHF+tpqmcen/tc9uI7LG193FyMjw7z4lpt58S03A/DEiSc5feZM87a5ZR5tNLMGxNYBKKUB0xdSjVaILiRmqnwUFu+HYJrYO2CdU90h+yYKW2upD2BhhbmtL5/OC6HnEP4ONQ5y1NdWyzwm9u3jU5+5h3K5xO2v+O41x156ySEOX3E50J7MI/eCGwbE1hFEUvatX916ojON55hd2Mf06BE7MCxncNQsYvGoTXWSxs7VcvYK9BxmOwtYtoCIqxC27nq8LbRQX2vKPMZWyPa7XnobJjHc/+CD+L7PRQcOcPTxYzx+/DiV6jw/91PvYWRkOLfMA1KxeKn15UMwILaOIIqiXeNXF6tlwiC90goPCgdwso1GesF+DdA6kjqYpIuLik2aiu7Mxaal+lom8wjX1rwOHtjPcHmIT33mHgCmpya56OBBXnP7q5prBXLLPJIawkTg5ltLMCC2DiCKFKOju8MFQ2pDMbwACXsj9muA1tGm/1qrWCG1HTKgbLG+tlrm8eG7P8a3vvMoAJMTE+yfnmJpucbb3vwDXHJo7b6M/DKP9sxOB8S2TWgdY0zSlmXLziMh0gFj4UDK0Sm0u7ilVexktJanvjY2uhJBOY7DW9/0fVx37TUMle0Ogt/5/T/kw3d/jPe+512MDNtj25N55K+vAWxPTTqA1a/1aX1tPYSqoE2BQmF3nO+ugJprywq8VYh4bucmDtQcxt+cpK3MI2nKPM7NzPLDP/gWXvKiW5ukBvDun3gHQeDzZ3/x0ebvlttY2iLUXFt7IAbEtk0sLC6ilGZxcRmtda9PZ1OoaInQH3jrdQyJhKRu97R2CULP72x9zdu8cbBe5vGlBx/k99//x+cdNzRU5t0/8Q6mJ1eIspZT5oGRiGSxLanLgNg6ANd1aTQiZmernD07y+xsNSW6uNentgZSxRQLuyFl3iVoc3FLyzBxuhl+5yK2ZKuIbZ3M48W33MLC4iIf+NCHzzv25OlT3HnHq+1dpzKPPMTmqBlo86IxqLFtE1prpqYmEMIWd+v1iCiKaDQiarU6Qgg8z0ouSqViT7VuUnuMjpW3PnCAltDu4pZWIeLKzi14aaG+Fm8g8zh4YD/v/okf539+4pN88CN3c/HBg3zn6GOcOn2aUhjyCz/700B+Nw/IZyy5HgNi2waUUriu2yQ1gDAsEIYrf7x6vWF3SKwmOt/D93aY6OIlpClSDAceax2DqmDCfPqqPJCNeWIm2ZF+ewv1tfo6mUccxzz97EkePXoUrTWPHn2MR48+xm0vupWXveTF3HjDdYRFe/Z5ZR5giU20aXY6ILZtQEq1Rvy6EcKwuMZd9EJEF/g+pbCI43anOhBHC4Ref6XGuxomAT3fVauihZqPUmX0/CyhJwmLDmFpiEKx81F3q/q11TKPD37kbh4/dpx94+McufIwhy+/nC8+8GUuu/QSbr35hWtum1fmgYlTqceLcz8XGBDbtiCVzj34vhHRNRqSer3B8nJtLdGVitu2QWqeq4woDrqhnUO2uKWLZeooLjK2bxiHCB1ViSLJwvIisalT9BSlkk9YGunMBrkW9WurZR4vfMGN/MD3voGJfat0ZgL+x199Atd1eeEL7MLltt08/H0g2nt9B8S2DSipCLc5+L6a6IwxNBobE10h8AnD9olOapfh4fyGgANsDKMqLVn7tIs4TkiSJC1VlPBLJfwSlACjq+hI0ajXqS5qEuNRDGLKYUBYGsX3c75HWqivrZd5ALxoXVQG8P1veD1KKv7p3vuaxNaOzMPRM9sa/B8Q2zYglWLY61xaIIQgDEPCtIZhjGmmrrVanaUlS3S+7xMEXutEl0gacYliaTAD2jGoCkmxe8ukpZQEFyhzCG8M3xvDL6dEJ2fQskFtucHcvAThUvQNpVKBsDSE723xHmlFv5Zjactbf+D7+ccv3Nv8d26ZB2l9bRv1ywGxtQmtY5wOOOZuBiHEuh2vNqKLIsnycutEF0dVQi9CiIEdUceguyvMlVLhtljmEMEkfjCJDwwZiZGzKFmjtrTMbDXCcQRFX1AqFwmLId46omu1vpZnacurX/UKoD03D8hS0Zty3WY1BsTWJqRSO2IsuRqOs57oEur1BlKqTYlOqgbFzpv7Pn+hq3boXXSvZhlJ2dY+XyMCKBzEL4APDCdLJHIOJRsszS8wMzeC4xjCwGXfvhHbCNiivraRzGM1pFR4nrvhRXW5XZmHW97W6zsgtjahpMLt8Xyo4ziUyyWySZYLEZ0nPMZLkbUkamGz9wBbQHVZmAtplLP9MkfiDEFxCL9oiW40niOWVeaWisRz9+EWSlvW19bLPDJUqlU+9j//mtNnzhBFES+44Xre9MY3MDS0ct61er0tmUc7g++rMSC2NiGVotCFHQfbwXqii+OERqOBqjeYq4XMLS9S9J4jDKzeLiiODnaHtgG7uOWyrt2/lJ1ZDLQRYncfpjiOWphFTNxJrM6CkZveptGIKK6SeWT428/9A8PDQ9z5mtuZm6tw7/0P8MGP/EXTAhygVmvkk3mQbkkrbM9/bkBsbUJKRbnc36TgupboSM8zjmNUtEhNNqjMAWaJ0DtDMYBSGOAXx2wKMMDm0HOY0q1du3trXNq9j6bWsTVuEB5JsPVm9fUyjwxzlQqvv+tODl9+GVdecQU33/QC/u/f+E2q8/OMjY62JfMAcNQcDF2X6zbrMSC2NhDHCcYY3C6JabsF13VxS2NQgiHsG1zLJZZlg7k5cFii6D5HMYByGOAVxsDLZ/C359Fc3NI96YytWXWT2FrXX24k88jgOi5f+vKD7BsfY2x0lNNnznDwwP5myrpca8PNI66C42+7ZDIgtjag1NYTB7sBnufieaMUS6MMY4lORcssyzpzNYEQdRyWGA2XKBUL+MXRgW34LqqvXQjNiK0FbCbzeNtb3sSf/cVH+c3f/l1GR0aYX1jgta++vUlktXobMo94AZKI5049ReALwoJHIRzG8fNdYEUjkibXLQZgYXGp62++fsDCwiJSKgqeJlLgoCk6ixQDQ1j0CYojbQ8p71aYxYeJvQMkhcu79hhPP3OK/fu7N1xfqcwzNjrSEuk8d+YchSDgQHo+9qK+lhQfevibVCpVLr30EFdecUXzuCefPsXExHgumQjYjOjU6ecoFxRKJcg4IHDqBL4mDByKYWjrw+LCwcXuDzt6gFZmRPcCtI5xPY/hsX0rEZ0coSbrVKoJxsSE7hMU/JhS0acQZkS3QzbWvYCewxRv7NrdR1J2/b2lddzyY0ipGEk1aI98+zt87aFv8OM/9iN88jP38NWvP8S+8TGmJieZnprkzJlzTWJbrjWAfDKPDJGUFIKA8ugKuWtZs2WTSFFZTohNlYLboOhDsehRDIdx/ZVAY+9/OrsApVRLCuzdjjhOCFfVR2zqOgSlIYZImxFymIaqsbAQE1eh6DxJ0deERY8wHLZEt0OLfruOpI4xYNzuWavLSOH73eu2J0mCELTkKmPXStLs/hcKBRCCo48f4+vfeJg3vu4uPvO3n+Xggf38/T9+Yc3gezsyjwwyknjriNcLSnjBSrMuSRLiaB6l6lQWE2S1gSsWKXiKsOAMiC0vjDFoHe+SHQfbQ5Ikm9ZiXNfFDcsQlpvHSzlMJJdZWtSoqkvRfZaipykWHMJSGScY76qwtavo8mJk6H7EprVueaOaSh2hg/T4+770ALfc9ALOzczwghuu44rLLuWiAwd425t/AN8PuHTV4pZ2ZB4ZIimbIvQLwXEcnHAcP1wphcRqmVguUpdqQGx50e2OVb8gSRKAXPscHMehWAyhuDLrKuWIlZjUNNGCR9E9Q9GLLNEVS7iFcXD6Sw94IdjFLd0bfIfUWKGL2UCeNFQrjSNE8yL+ipe/lOMnnuTQRRdxz2c/x0033ECj0eD0c2eYm6swPmYbS1IqjDEU2nAdMcYQRZLRDeQlW8H1y7h+mYBBKpobe6UjuhWiSK0x0GwHQggKhYJNYVJIOYqOFqjWFWcWXQIxQ9FtUCwIwrCIVxzv3+kINYcZuqprdx/HCTrp7sYzreMNpRsbQWmFv+rCdtXhw1x12M6Uvu7O13LF5ZcxMjLM77//vwHwlu//XsCK14G2AgBbv/a3/d7b+5/QDiNK5+L2OpRSXVG+B4FPEKzIJZTSaLnAgpTMLAscUaXo1lPRcNFKTPphOiJb3OJ2z0hgM0ePTkEpjT/SYiqq9AWna269+YU8d/YsP/K2tzK/sMiB/dPN/8smJ9r5nERRZ1LxAbHlhFKKQmFvyzwg7YjugADZ9z18f19WprOi4WiRZdmgUgfMEkXvDAXfTkcUwlHoYvH+guj24hZ2psxha2ytPYZSmuGh89/rn/rMPXz1oYeIIjuK9dKXvJg3f98bm/+/HdWAnbrYfg12QGw5oZR+XkRscRyv2d2wU7Cd1zGKzXnXGB0tEak6CxVDMhdRdGcp+glh6FMMd2Z7vVEVki4aS4KN2AptyCNaRUZqraR5dhG4OY9kjp84wQNf+SrvfMe/ZHhoiCefeoa/+tSnmZqc4Ltf9lLApqKtNijWI4okQ0Pbj9AHxJYDdnmLs+38fzdgq47oTsGOgY1SYJRyel46ColkjcV5g6pois7TFIOYUsGjWBpB+F2YjlAVTOnSzt/vKkRSMdTliYNWCUev64hmOHtuhmuOXMUVl1kTgMmJCeYX5jl56nTzGClVc4lLHijVueH/AbHlwPNFmGuMHUZp96rbTTiOQxCOEIQjlLHnqmQJHS0zsxQTVU1TYhIWXcJwCKewzemIbHFLF1ftKaW75uiRIW8aCud3xS86eIDP/O1nuf+BB7nu2qtpNCKOHT/Btdccad7OGNPW5ySKFEGH9nLs/U9pByGVxnX3/ksWRRIhxK6ITIUQBIUhgsIQWQJjiW6RynLMcwuGQJxCCMH0SEQQDtslIXmmI3akvtZdRw/IOqKtjTcprTaM2C+75BJec/sr+ew/fJ5P/a97MMZw6OKL1qSh0F5HNJIRfodqjHv/U9pBdGJ5y26AUhrH6X9SuxD8oIQflMg+wlo2qM4vYWiQLB9D6Io1MgzGEN54ug3pwnVTu7ile9Ea2KJ5vzUOVqehx544wfTUJCPDw9zxqlfy8ttewslTp/F9n0svOdQ8TkpLbO1GbKOjnakxDogtBzq9vKVfoZTu6cb6jsPxEY6HGLoBzQ1gNELP4ugZRO1JhP6q3YjkjyP88XQMbFW0oiokxWu7eopSasrl7lkhJYkhSUzL5KmVbg6vV6rzfPDDH0HHMWFYZHpyiqmpSaYmJ87bH9pu4yCOY5Ik6Ri5D4itRWitu768pV8QxzHFPbQkQUq5Vo8lPIy/n9jfjw3rEoSaRegZnPrTiMWHwB0GP43oury4xU5oSMbGuud9p7VuuRkUJwlxkjQjtvGxUd77nndx9twM52ZmOHtuhtOnn+Pbjx7l7//xC/zyz/0MQ0NWgqParENHkTyvUbEdDIitRbSzHHm3wpikM0t4+wRKqjU+/OfDwfhTGH+KBOvcKvSMjeoap8Ad2dQiZ7vImlLdrGnmMZfUGzQODuzfz4H9+9ccF8cxH/rI3dz3wJd53WtfA9iIbaicP6uJpDpv8H07eH58UjuAfljeshMwxmBMvhnRfofdT5GvdmO8SYw32dXdoRlkh0SpmyGO45Zfg6wjulVK6bouYVgkiWMAdBwTx0nbEVsnU/G9n1d1CPJ5MiMqpUQIdkVHtBUopfFcr69t3COpul7TXN8M2PRYrfA9b9MGkpSKD33kbr717Ue57tprm78DckdeWSreSXLfM5/UTHtlv5mV7/bb2t+lnsGG1h0I7PKW7hV3+wVSaoToXxLICykVQZ9tE1sP2WVHD8jn6qHU1vW4Wq1GnCT80FvfzOWX2o3tKuuI5izZRFKuGbbvBHpCbM+dOdeMCIwxYFLuaSIhdc1ZgTGYVaTUvG2K1RGG/VFc4GcQiPRXgtGRoS29n1aWt+z9VFTrvdURlVIx2qYv2E5gpRvYvdc8ju3cb6uNL601xU1rkjA2NspP/ssfW/O7bIl43mjfNg46S0U9IbbsyQeBvyUJgbjAz9tPl+bnF1s67vliVQRZLaa/I5w8UEp1df5yu9iJaZY8o1SZkWo7Hcp2n4uMOj8j25NPqxAC13V2TYFa7kANpF+QJKYvR6nagZRWPe/0cb0w2gFHD6W2P0rVCqRSLU82rEY3ZmR7Rmxmm7uxhBB4rpsWhTd64xpr3BfHa1LWdtCJxoHjOBuG24kxzaJrr2E7ouc7OuxWSKn6Pvp01SmCYAQrqOsOAcdaExZbIw6VjkS1ErEde+KJpvFkkiS56ngZpFI4Tuf1oT0iNlhfVcsD13HSF1BggJNzhkefMywtw1AZrpyCy6cc6wzhOkilm1bX7cAub+lEqHz+G1ds43XoNDKC3SsiZKUU5VL3LY22g3HnUbQq4OtllCkRiyG0GMY4I+CPIjqwsFrlSEVVWmPdqos8MzvHBz7057zrHW/n8BWXt90RlZHsimayN8SGIGkzinJdt9l1+eqThg/8k+KJs+ff11X7Bb/4Bo8rpmykpLQmjvOT28ryls68VPeffYh/f/9vcWT0Ct7/6v/QkfvsFKTsjmtuL2DSSDjvwt6dhNBzCK9EMPbdNqtozINawNOLCP00rl7CQaMpE4shYmcU444i/DG7Lb0FGGNIkta1ZXqDjui3Hz2KlJKbbryxKQGZnNjHT73rf+eSdIFLNvyetyPaiGRXGic9S0Ux+UnGcRx8z8UAH7w35qP323pAWHC4+gBcPCY4VTUcew6OnUn4uQ9p/uPbfF54mcD3fJJE5k5LO+1qmhhDFCu00R27z07BdkT3BrH1A6m5y1/DiSsYb5TEGcN4lpgQNkIReiZ1GkldSsIxCNdaj8dx1CQ8V1dx42fx1TKxCdBiiJhhEnc0je7Oj07zpodK6zV1so987ON881vfRgjB5z7/T/zrd/4kQ0Nlvv3oUY4/cWKF2NI6dN4Lo5SSMOx8VN2bVp+grRqb77mA4BMPJk1S+75bXN75KpdisJLmKQ1/+s8xtchw06X291rr80jNcbZugWf1NSEEAptAb0WOa6QsOWFJ3/QkQY3j/jCX7ASkVBR7XF8TyRKifAQR10BXEbWnIV4Ap4jxRiFJEMWDm96H6xZwy9PA9Jrfx9E8Qi7iqAU8/Qyu/g6O0GiTRXcjGHeUOCnlagYppQlG7fGnnzvD48eO89PvfifDw8P80Z98gA9+5G5mZ2epNxrcdOMNzdu10xGN0/r33orYcn50XcdBCIezi4Y/vdeS2jte5fMjL7XElCRWayaEwPcc/tUdKy+W1hqdjn0AeK6L57o4IwLf9+wLayAxCUmy9rwKgZ9+rXxIjDHESYzWK/cpsDKWtc2M1p5jFona12WFFOM4XnPe3UaelKXfoZTa0K9/RxEvgVsGf3LtiE+8hNALGL0IQXt2SH5hFL+w1ik4SaM7oRZw9TxufJIhsUzdvQbYeglNsyOavgdOP3eGffvGm1HZDdddyxMnnuTOO27nxuuvZ2Rkpf4nlaKYc2wtiiS+150Lac9qbHmDGSdNkT79tQSpDZdPCd52mwPYGgJrjBENq8nFcR0C1wFDOi6Uvs2UJD71DO4llyKCAo5wcIS9koCt54kgQCqFiOvQOAHFK8AN7ZiOYxsTYLtI2eMv1A3VOlwyvlZ3t+FrIcRKB8oYklNP44xNIMrlJlFKqboewe2ljmjWoetpR9RohJHgbCB/cIfAHUJ0OFN23AKFddGdmX+AoDjZ0vtH6bQjmr4Hzs2co1QqceKpp5mc2Me5czPcevML+a7UVLL5GMZccPHLZmhEEr9L5po964rmTdOclIwePGFJ5/brPDyRTgVg8JwLhbNiRceUfktOPk3jD/4z+qGvYUxCTTh4N99K+ed+DeeiQyuaNQFExykc/VmcxX/GJAnCcWD0duIjv4soXtUkJSEEx84k/O49mmNpM2MkdPiemxzueSjh+ksEv/6WjV5uAVISffi/Ij/5VyRRHQDvppsJf/7f4Rw8hO/7zeJst5BdrfeCXq8f6msiSaO1XkMvYLzWVgbG2ta9s5ry4tISx44/wZNPPoUf+NTrDZZrNarVeaamJrntRbfiOE77HVHZmcUtG6FHNbb8ttPZ4WcXbBp71X77izhJmp2av3sk4bMPb5y6vf2VHjddIkhOPs3ye3+SJKojJqfxrriK5MnjqK9/hYX3vJ2R930Q51C6tKP+GO7XXobRNUxwCIZvxCw+ApXP437tZcS3fhFRvBqAx54z/NKfa3RiuHif4OCYw9FTho8/YAkjii5QyzOG5f/079Ffvg+nEOK//BWYs2fQDz/E8r/9eYbf/2c4hRDXcYi3IVnZCrYj2r9C1jxQSve+vhb3AbHFSxhRaDYrtjw8idfUu9725h/ge1//Os6dm+HszEzz+9HHj/HFB77MFZddyv7p6RU3kBxNtizK65YYvIepaHsf0iygkCoB3DXKsLOLhkdObny/ZxZselr/L/8PSVQnePWduD/7q/hhiEtC7f/7j0Sf/yxLv/0bjPz2H9kbfeenMbpGPPFWnOv/BCMKCBMhjr4bc/bjuEffS/zCz2IM/Oe/UejE8JYXe7z71S5C2JT0335sYzlKBnX/P1lSGx+n/F/+GGf6IEjJ8q++F/3ot2h84I8o/tQv4HkusewesVk78N0frYGNBEaGezwfGi/1ftGzXrRNihYRxzHeup0eYbHIpZccWmP/DTbdzxpvOs4f7XdqMfJGSJKklwLdfMgaAxePGR6twWNn4LuOgOs6TU3cXdc7vOCitVen9/2D4qkZw8ERAcvL6Ee+gRAO4U//MtLzieMErxBQ+plfQf7j36MfeQhTX0YEMWb+XoTjIK/4LQqikP4xC3Dk93Bm/hIzfx8iXuDk/DDPzBmGSw7vfJWLELZeNRI6vOMVPv/XX8oLPq/koa8AELzlRwFo/Pf3oe75NMl8BTE8AqnrgxAOjmhf/7cV4rh1EWc/w3baeu8nJ5IFqzfrIYxeyLW5Po5bH8ZfrSawy7XzXRTtjofuXEilVD0cqcoZfCSJwXXh5Vd6PHpK8dmHE/7FbQ6lwEWkH/b9o4L9qy5QDWk4XbU/X7QPktPP2MefmobhYZJGA6U0hSBADA8jpqcxZ54jefYZvP01W3AtHCIRI1bwqZTtjrpjGP8iiJ5F1I7x9NwtAFw2biPKJDEobe/3ki2aXvrUSQDU3/0NjT99HxiDe/U1hO/8KYLb74LA1oqMMVlxMt8L1yLsHtHd3xGNItkXY1QiXobixb09iXgRCgdaPzyOW7bxWg0dt0FskaTRiKjXIzzPxfd9wrDYEbLTSveuxpZX7hEnCa7r8sabBR//qsPccsL7/j7mF1+/sU2KAf7kC7aDet3Fgn1lAfvtG83MnIX6Mo7r29BbgKnXMefOAuBcdDGmmNbqopM4yRJCFAkyPVu8hFCnraatdJiL04viqXmIDbiOaNYbzlQ2f17egYvRgDn7HIXXvoHg+34Q55rrzns2SqmuRWtZR3Q3RWxJkhBFCqUkSsUkSdyU6uR1y+0G+qLGphcwpe5EbGtup+Pcwu5yKUQI26jISK5Wq68yyAgoFoO23pORVL1x0M1Pa/aNnCQJQ0XBL73BQwCfeyTmV+5WPD2zVtA6t2z4jU/EfPrrGs8RvPv29MUZHsa79gZMktD4r7+HiGNcz4E4pv7+38EkCd61NyLKw+COIUZuwyQxhaf/T0yS1qCMxjn+q5gkRoy8BOOOccmEYHoE5pYSPvpAgsEO9Tak4UNf3Lyb6bwkbZ0XAoIffnuT1OJjR6n9+i+TnD4JWIunbk0FZFu/u+kJth1IKVlaWqZSmWdmZo6zZ2c4d26OxcUlpLTTEqVSyMTEGNPTE2itaDSi3p2wiQADTg8jx6RhT2UjuckGyEav2nkPaB3j5YzYspnUUilkfHyUqal9TE9PMDxcxnVdGo2Iubl5zpyZYWamwsLCUktmEZn+s2epaDvRh03vfF56WPBr3+/z2/doHnk24T1/KhkJHS6dhKW64amU6HxX8Itv9Lju4pWIrvjzv8ryz76T6J5P4Xzzm3hXHyE5dgz9zAmE71H++V9bOc9r/hC++l045z6EWH4AM/xCxOI3MLWjCOGTHPmD9PnAL70x4NfulvzZPyu+9Jjg0D6HR04mnFvY/Hn6t72C4OWvQt7/BZb/zTtxX3gLSEn8yMMkMkJcfBnhu34G4DzxcKcgpeoLK3CtY6SUSKmIU//8TBbkONbUoFAoEAT+punm0FCZSnWBgwemdurU16BvorUc9bVMCJ6XoLLblvIS2wYzqUIIwrC4xk240YiI2TmGxAAAC7ZJREFUIomUknrdkrXrOvi+T7EYEATBmvdu5ujSu+ZBG59RW+fSBL7Hq651OHLQ5yNfjLn3aMJCPeERW0LDdwQvOuzwE69wuGzKdmCjyI58OJcepvQ7f0z99/5fkse+gzz5JADuNdcz9Au/hnv4qua5maEbES+6F/Od92CWvg61o1b6O3wrydV/iCnfmDY14KZLBL/5owG/9RnJ42cMj5+JCQsOb7rV5ZNf01zQbVsIwn/3HxAf/hPkX/4F6kv3AeAUSxTe/i6KP/qT2FT0/JGwTqEXe0QbjQgpFTo1J8jcV7JUxPM8SiWPQqGQe/6wWCwQRZKFxaWedEctsfW2K5u/cZCK0nNGbFkmlTeb0FpTamH5eLFYWKNJtAQnUWolKndSt59isYBKJyBEI5I7PpYolWJ2ttp8YtlmJLuPYO1ugow4sp8x4LiCcqmUfhgNUsHJeaguw1DBcPG4oegDCJIkYWFxiSROcD2PkTTUBRDzFdxzp/EvuRwxboeRMVbPA+A6Lgho1CPcZBZPnsCEV2L81XN7K1MO2Qt5dt6wWDdcMeVw//GE//QJxRtucvk3r9voOrJqSkJKkqeOQSJwLr0cwhAwbTuTtIqZmQq+7zE62vm9llJqpJQopYljTZKYZofbcQSu6+H7HoVC0NH2v9Yxc3NVDh6Y3vEU261/C1fEULpqRx93NczC14mDy0iCQ1sfDCzX6szOVjh8+SW5SEoqxVNPn2J6aiKXKPrpZ04xPT2x7UxBKU2j0WhG+cZY2UlPIjbXcZqjQtkbXCDSnx1ItyTZwXPR3Jok7A/239gru+u6FIuC0eGVPQY2IDRp3cCct9PAcax0gtJBOJgOIRvrvLHat03HMY7j2Pvyp0iKWYfJWAPLVW6zf/2VhE9/XfMLb/C54ZBg/6j9g933mL2/SydWv1lWriXGWOLyPBcnCHCOXN88JkkSdEoG3UQnZkRtMT9CSt2MwtamkU5KXv6OTAV4nq3fVKvzTE7u6/rjrUG8AIXprY/r8jkYN5+GLYuW8yCbl85zO6U1nut2pPzh+x6+vxIdZ2Lh3hCb6zI91bnN2kliVqW3ZsuULUkSElbvWDAXVFEkScLiUg3PszsUsw5iBs8kCOFQrRtOVg2//teat7zIZWIYHjxuuPexmPEhhztvtH9EKeWG9UWZim8dIVpyEOkUsggqj+7L1jxUGoXF56WRrusRhh5BUMDzemeDNDRUYna2Qq3eoNTlLVCrIeLl3tbYjIJEYtzWI/A4jtvuiEI+ca5WumtRdHaB3v3CpRTtEEGW8m4FxxFoHbORC6/SMYHv8I5XuCzWDZ/5RsyH7l05bl/Z4Vfe6DFUtGnxVk2Tbkk6LoRazc6mbvTG1FoTRTaNzJ5/VhrIivlhWCQI/J4LYi+EoaEy8/PzO0tsSY+nDnS+aA1SqUebjYNmptUilNY4Xa7p7hli6yYc4RCbjVvN1klC43keP/s9Hm+6xeGbzyQsNBwO7YPbDguKgWimnL1E1mFanSpmKX6jITfUhFk/epcg8PD9gELB31Uuu4VCQBRJ5ucXu1JDXA+R1ED4IHr40cox+J7BTp7kP+d2pg52olk1ILYWIByxaZ1LNw3zPC6bcrhsau0HP0lilN7+Upk8iCLZjLYyQ7/symo7jrbWNTc3j9aaxcWl9P9cisUChYLf9e1JO4WhoRIzMxXCUrGttXK50AdSD6OXMN7+XLeJ44Sw2Aaxxfldl21HtHvLx3s2K7rbYCOUzUkpThJiKVcaE4Jm86LbhCblWhLLSDiTTYShbZlvFGlNTPR2nnEn4DgOQ0MlqpUFpqc7V9vdCH1hV6TnMYVrct1kOzW2vNFXt5dy92xWdLfByTHbmjUmugUpVUpiag2JrURiBQqF3hbt+xGlUkglmmd5uUa53L36l4iXED119UisXVEOV4+sdtpuja2YIwrO6szd3K2hBsTWGhzHIW7TZqmTmJ2toHXcTBnDMKRYDPZMythtDA2VqM4vEIZh17znRLwALWrHugK9kJJa688vE+e2O07VjtSjm4gGxNYahNM9V408sAprwb59ez997AZ836dQKDA/v8D4eL6uYctIeiz10IttdUQh/9RB1oDqF6lHhsnJ8e4QW2IMJjFNzVf2lWQ/b/B/xhjqjYj90xN913VzhNN1kWwrsM5FvZ/p3M3IGgmlUtgFeyOTjlP1LhU1ehHjjue6TdzmnGhmMJnndqrL9bUMnpQSEM3p/iYBpbmwSQyRtEaJjuNYUiLBSrqy72bVqAyQThGsfLHu3yvW4GuOx7aC+8FPazUcR5D0QSpqGxj9Rfq7DUIIhofLVKrzHNjf2SH5leH3Hl589DymdHmum8TphE3egKKdqYO8e07bhXfm7CxeuvrNcZxVhJONOAniOGmOxJxPXJxHVu1CKbWhCLYfYPokYuuzYHZXIhuSX1xcYriDQ/J90RGN8w2/Q/vi3HamDpTShOEOjNQBW9Zs6nU7Rd/tSMpxnK4TWxaZZo4ScZKQrPrZdhqtyj6JTbosZmV3aW/TZDNIRTuEcrnE3FyVUinsXGoUL1kftPpT4NkVezg7aHoZL2GcUm5xsG5T6pHNUud5T3Zb6pGhr5oHQoi2NzFFkdyApHSTnDJ7FcjU9E7zK4tMbbcxaEav2e8AzpyZIY57S2yZO/gA24fnuZTLIZVKB4fk3WHiwpU48TzIszY1NTG4I4jyYfDbW47cMnJaFWWI44RCIb9wOW9HVOs4XXze/TdxXxFbuxHb7FwVpdR5JOX7PiJYS1LtvqhCCJIkprcv2SBi2w7szKu23+MYJRVB4DenMraLxLfuL2vewSbCW/oyYgcqGaaNUSrItlPln6XNu+tAaZ2789ouvLYcH7sExxEkOX3HZueqJEncvfb9KsRxb1+rQVe0dWxEYr5vh/WLRevCG/h+919PUQAjd8YmXC9i2lgg0/7UgcbNoaG0Uo+dCQy8PpBnNeE4TtNPqRVkpDYysgPDzUL0SWNjQGzr0SQwbV1IVKqVCoKAYmolHgQ7QGIXQhLtDLHl9GCD1VKPduZEY4IcdXeZZlU7gb5KRfOQx06SGmSb73pNbINUNCOuFRJTlsR8n0IQMDwU9JbENoAwO0BsSR1wwMmXUrYrzoX8zh5xHO+YvVVbxLYiqmVDoa3jOG09AVtji7c8TkpFrVbv+kDzaljS7X0q+nySe2gdN6OxOI6RUuG6btNKfGioROD3uY2S0VjtYZfPUS+QtNU4aFOc26bUY2hox2psWyNJZRBnz81BkqT23Cs6t/OFt/kcWTM4W9gDrT7O3eE3c/+kon38Id4G4thGYk0SUwrXWSGxwC8RBH1OYhtAmAhEgKl+yY5bGQOOByIAJ0CIArhFcEp2YsEbsn5uOWH0Inj5Jg6g/TnRbKtVq13RTGbVzeH31fCyB90sdA/DIo7jMDoytKUQt9GIqM4vtHUyjuN0dWnJdiCE0wep6N6Qe2Qktrom5jjCznIGAUF5d5LYRjBOGT38SjASd+nLOOFBSBqYJLL23WYZlLayEJOw0swT6R/btbo04YHjI0SQEmERnNCSoVu2jYPg8tznl4nv86bucWqa6jqtEaLagRnR1UiJbfMPTOaE0MobzXXd3J3N9Y/VeyHs+bD24L3utJiuuVJ0C3Ecr6qL2ZqYIwReGomVSiGBH+zYlbwXMOkqPoGG4qXgFDZvARkJcd1+JXUr+k0amERi4mXQVUuExKk5Q/q+LObzYINM6tFe4wBaj9iyhUU7hZTYEuDCDyqEaDmScl13U5HtwsLSllu6+5XYdtIBdyPYh++v12U14jhZqYnpGKUVIJrpZCndj7DTO0z7AwkksrVJBBGAF8A6T7XNyNDMfo7EHcl9VnGcbKNx0Hqkp5XGaTG66wQ8sJuKNnuv5ZFhZDW3C5GTEDA2NsLQJmZ//dTRymBT0V6fRf80D5IkWVMTy94fvu9RCJ7vJHY+RNLI3bHMh5jNgpML3iqOKfr5x77sFEE+ce5ODL9n+P8BAK5xMflF9ywAAAAASUVORK5CYII=;" vertex="1" parent="pvXEMcbh3QGh9E6OVLg4-1">
          <mxGeometry x="265.24" y="130" width="300.56" height="637" as="geometry" />
        </mxCell>
        <mxCell id="MbbM2TVN4K8qM0jNWohb-0" value="" style="shape=image;verticalLabelPosition=bottom;labelBackgroundColor=#ffffff;verticalAlign=top;aspect=fixed;imageAspect=0;image=https://imagensemoldes.com.br/wp-content/uploads/2020/03/Mockup-IPhone-PNG-Gr%C3%A1tis-677x1024.png;" vertex="1" parent="pvXEMcbh3QGh9E6OVLg4-1">
          <mxGeometry x="192" y="120" width="456.47" height="690" as="geometry" />
        </mxCell>
        <mxCell id="MbbM2TVN4K8qM0jNWohb-1" value="&lt;font style=&quot;font-size: 30px&quot;&gt;SLiPaD&lt;/font&gt;" style="text;html=1;align=center;verticalAlign=middle;resizable=0;points=[];autosize=1;strokeColor=none;fillColor=none;fontFamily=Helvetica;" vertex="1" parent="pvXEMcbh3QGh9E6OVLg4-1">
          <mxGeometry x="280" y="180" width="120" height="20" as="geometry" />
        </mxCell>
      </root>
    </mxGraphModel>
  </diagram>
  <diagram name="WebSite_menu" id="XpRUim0SJvjLpJz_hvS_">
    <mxGraphModel dx="1422" dy="749" grid="0" gridSize="10" guides="1" tooltips="1" connect="1" arrows="1" fold="1" page="1" pageScale="1" pageWidth="827" pageHeight="1169" math="0" shadow="0">
      <root>
        <mxCell id="_wEyiQ_zP7jR_6DdXIAj-0" />
        <mxCell id="_wEyiQ_zP7jR_6DdXIAj-1" parent="_wEyiQ_zP7jR_6DdXIAj-0" />
        <mxCell id="_wEyiQ_zP7jR_6DdXIAj-2" value="" style="shape=image;verticalLabelPosition=bottom;labelBackgroundColor=#ffffff;verticalAlign=top;aspect=fixed;imageAspect=0;image=https://imagensemoldes.com.br/wp-content/uploads/2020/03/Mockup-IPhone-PNG-Gr%C3%A1tis-677x1024.png;" vertex="1" parent="_wEyiQ_zP7jR_6DdXIAj-1">
          <mxGeometry x="192" y="120" width="456.47" height="690" as="geometry" />
        </mxCell>
        <mxCell id="_wEyiQ_zP7jR_6DdXIAj-3" value="" style="rounded=0;whiteSpace=wrap;html=1;" vertex="1" parent="_wEyiQ_zP7jR_6DdXIAj-1">
          <mxGeometry x="318" y="470" width="180" height="30" as="geometry" />
        </mxCell>
        <mxCell id="_wEyiQ_zP7jR_6DdXIAj-4" value="&lt;font style=&quot;font-size: 50px&quot;&gt;SLiPaD&lt;/font&gt;" style="text;html=1;align=center;verticalAlign=middle;resizable=0;points=[];autosize=1;strokeColor=none;fillColor=none;fontFamily=Helvetica;" vertex="1" parent="_wEyiQ_zP7jR_6DdXIAj-1">
          <mxGeometry x="330.24" y="260" width="180" height="30" as="geometry" />
        </mxCell>
        <mxCell id="_wEyiQ_zP7jR_6DdXIAj-5" value="&lt;font style=&quot;font-size: 16px&quot;&gt;Enter Location&lt;/font&gt;" style="text;html=1;align=center;verticalAlign=middle;resizable=0;points=[];autosize=1;strokeColor=none;fillColor=none;fontFamily=Helvetica;" vertex="1" parent="_wEyiQ_zP7jR_6DdXIAj-1">
          <mxGeometry x="313" y="451" width="113" height="19" as="geometry" />
        </mxCell>
        <mxCell id="_wEyiQ_zP7jR_6DdXIAj-6" value="" style="rounded=0;whiteSpace=wrap;html=1;" vertex="1" parent="_wEyiQ_zP7jR_6DdXIAj-1">
          <mxGeometry x="326" y="602" width="180" height="30" as="geometry" />
        </mxCell>
        <mxCell id="_wEyiQ_zP7jR_6DdXIAj-7" value="&lt;div&gt;Use Actual Location&lt;br&gt;&lt;/div&gt;" style="text;html=1;align=center;verticalAlign=middle;resizable=0;points=[];autosize=1;strokeColor=none;fillColor=none;fontFamily=Helvetica;fontSize=16;" vertex="1" parent="_wEyiQ_zP7jR_6DdXIAj-1">
          <mxGeometry x="337" y="606" width="152" height="23" as="geometry" />
        </mxCell>
        <mxCell id="_wEyiQ_zP7jR_6DdXIAj-8" value="Smart Lighting with Parking Detection" style="text;html=1;align=center;verticalAlign=middle;resizable=0;points=[];autosize=1;strokeColor=none;fillColor=none;fontFamily=Helvetica;" vertex="1" parent="_wEyiQ_zP7jR_6DdXIAj-1">
          <mxGeometry x="318" y="295" width="220" height="20" as="geometry" />
        </mxCell>
        <mxCell id="bUNUT6AtxneJOF9aLUIp-0" value="" style="rounded=0;whiteSpace=wrap;html=1;" vertex="1" parent="_wEyiQ_zP7jR_6DdXIAj-1">
          <mxGeometry x="444" y="507" width="54" height="22" as="geometry" />
        </mxCell>
        <mxCell id="bUNUT6AtxneJOF9aLUIp-1" value="&lt;font style=&quot;font-size: 12px&quot;&gt;Select&lt;/font&gt;" style="text;html=1;align=center;verticalAlign=middle;resizable=0;points=[];autosize=1;strokeColor=none;fillColor=none;fontFamily=Helvetica;fontSize=16;" vertex="1" parent="_wEyiQ_zP7jR_6DdXIAj-1">
          <mxGeometry x="449.5" y="507" width="43" height="24" as="geometry" />
        </mxCell>
      </root>
    </mxGraphModel>
  </diagram>
</mxfile>
